<?xml version="1.0" encoding="UTF-8"?>
<svg id="Ebene_1" xmlns="http://www.w3.org/2000/svg" version="1.1" viewBox="0 0 500 500">
  <!-- Generator: Adobe Illustrator 29.1.0, SVG Export Plug-In . SVG Version: 2.1.0 Build 142)  -->
  <defs>
    <style>
      .st0 {
        fill: #f3df6e;
      }
    </style>
  </defs>
  <path class="st0" d="M191.74,9.35c76.47-22.74,161.84-3.04,222.46,48.83,120.68,102.41,111.04,288.46-9.96,386.34-100.84,81.45-245.7,72.43-335.27-21.77C-12.48,338.22-22.04,202.57,46.42,107.19c8.03-11.21,17.08-22.07,26.87-31.77,22.38-22.41,49.11-40.26,78.11-52.07l.48,1.08C95.97,51.42,51.39,99.68,28.92,157.64c-60.13,153.41,46.73,323.08,210.64,332.89,49.82,3.27,100.62-9.46,143.07-36.02,62.66-38.94,104.69-108.94,109.54-182.9,8.57-119.04-69.97-229.96-185.28-258.97-1.55-.49-4.01-.96-5.6-1.35-5.43-1.34-11.49-2.42-16.97-3.39-30.42-4.9-61.83-3.93-92.28,2.58,0,0-.29-1.15-.29-1.15h0Z"/>
</svg>