<?xml version="1.0" encoding="UTF-8"?>
<svg id="Ebene_1" xmlns="http://www.w3.org/2000/svg" version="1.1" viewBox="0 0 500 500">
  <!-- Generator: Adobe Illustrator 29.1.0, SVG Export Plug-In . SVG Version: 2.1.0 Build 142)  -->
  <defs>
    <style>
      .st0 {
        fill: #f3df6e;
      }
    </style>
  </defs>
  <g>
    <path class="st0" d="M117.59,249.07c.39-.11.86-.36,1.21-.99,18.12-39.8,26.82-57.25,49.59-99.04.42-.76.46-1.73.17-2.72-.66-2.26-2.73-3.9-4.11-3.5-.3.09-.53.37-.8.55-25.77,44.68-32.5,59-50.86,98.34-.43,1.08-.47,2.06-.16,3.14.74,2.56,3.28,4.7,4.95,4.22Z"/>
    <path class="st0" d="M185.25,205.05c16.24-23.47,18.61-43.25,14.62-57.02-5.44-18.79-20.78-26.08-42.52-19.79-21.55,6.24-45.02,24.98-55.04,48.57-.43,1.08-.5,1.96-.27,2.75.46,1.57,2.4,2.4,4.86,1.68.49-.14.89-.26,1.32-.6,2.51-1.26,11.15-9.73,14.83-15.07.62-.82.68-1.69.51-2.28-.26-.88-1.42-.87-1.6-1.46-.08-.3.56-1.02.63-1.14,6.3-8.44,21.37-21.22,36.52-25.61,17.91-5.19,29.36,3.44,33.1,16.33,3.68,12.69,0,30.18-12.75,49.87-18.44,28.38-53.41,52.37-74.95,58.61-3.74,1.08-6.23.95-7.9,1.44-.98.28-1.3,1.76-.87,3.24.68,2.36,3.3,5.12,7.53,3.9,28.14-8.15,60.96-32.91,81.98-63.42Z"/>
    <path class="st0" d="M185.68,234.89c1.37,4.72,4.49,7.02,9.01,5.71,6.3-1.82,11.55-8.36,15.79-14.7-.19,1.55-.09,3.01.31,4.39.85,2.95,4.07,4.47,8.59,3.16,7.02-2.03,14.89-12.81,19.41-19.76l-2.55,8.37c-.29.83-.86,2.17-.58,3.15.29.98,3.23,1.94,4.41,1.6.79-.23,1.42-1.37,2.16-2.86,4.48-9.19,8.58-15.28,16.86-23.54-3.3,5.54-5.32,10.71-4.01,15.24,1.14,3.94,4.96,5.71,8.99,4.54,5.43-1.57,10.82-7.37,15.48-13.63,1.85,5.5,6.42,8.25,11.93,6.65,7.48-2.17,14.52-9.26,19.68-15.73.05.24.1.47.17.71,1.23,4.23,6.15,6.86,12.15,5.12,9.35-2.71,14.11-9.1,16.99-13.88.21-.38.32-.73.18-1.22-.37-1.28-2.33-2.52-3.61-2.15-.39.11-.66.3-.87.68-1.48,2.24-6.19,8.08-11.9,9.74-2.76.8-4.35.09-5.23-2.96-.09-.29-.2-.69-.24-1.21,12.44-3.82,22.03-14.16,19.66-22.33-.97-3.34-3.62-4.39-6.57-3.54-7.59,2.2-16.25,11.31-19.62,20.49-4.46,6.22-12.85,16.75-19.87,18.78-1.97.57-4.8,0-5.65-2.95-1.97-6.79,6.63-19.09,10.47-20.2,2.66-.77,1.99,6.14,5.34,5.17,3.15-.91,5.24-5.46,4.33-8.61-.97-3.34-3.42-5.19-6.97-4.17-8.5,2.46-17.81,13.08-20.35,22.69-5.65,8.6-9.6,14.03-14.75,15.52-1.18.34-2.18-.54-2.52-1.72-.88-3.05,2.16-8.73,5.16-13.12,2-3.03,6.61-8.1,6.1-9.87-.43-1.48-2.54-3.64-4.02-3.21-3.64,1.05-13.15,9.46-21.57,19.79,1.8-4.47,3.32-7.68,4.02-9.69.4-1.18.56-1.76.33-2.55-.51-1.77-3.31-4.05-4.98-3.57-.88.26-1.49.75-1.88,1.61-2.82,6.47-5.82,11.92-7.38,14.29-1.46,2.34-12.42,19.7-18.42,21.44-1.38.4-2.5.19-3.02-1.58-1.08-3.74,2-8.58,4.51-12.4,2.1-3.06,3.89-5.71,4.94-7.62.56-1.01.68-1.69.51-2.28-.74-2.56-2.79-4.1-4.16-3.7-.49.14-.74.75-2.4,3.15l-2.36,3.99c-1.77-2.79-5.26-4.55-9.79-3.24-12.2,3.53-25.63,20.11-22.19,32.02ZM331.02,172.64c1.38-.4,2.13.34,2.38,1.23.91,3.15-7.01,11.52-13.89,13.52,2.07-6.47,8.27-13.8,11.51-14.75ZM208.14,208.98c2.75-.8,5.12,0,6.2,2.26-5.72,9.34-12.68,19.56-17.5,20.96-2.16.63-3.65-.44-4.24-2.5-.71-2.46.22-6.25,4.14-11.86,2.25-2.89,7.08-7.59,11.41-8.85Z"/>
  </g>
  <path class="st0" d="M404.12,282.72c-1.37-8.03-3.84-12.54-1.38-17.3.04-.23.15-.58,0-1.07-.34-1.18-2.53-2.47-4.4-1.93-1.57.46-2.41,1.98-4.91,6.97-2.46,4.77-4.72,9.47-7.83,14.21,0,0,0,.01,0,.02-1.59,2.43-13.36,20.17-25.24,23.61-2.75.8-4.35.09-5.23-2.96-.08-.29-.2-.69-.24-1.21,12.14-3.73,22.03-14.16,19.66-22.33-.97-3.34-3.62-4.39-6.57-3.54-7.32,2.12-15.65,10.68-19.25,19.53-1.47,1.56-3.38,3.02-5.89,3.74-2.85.83-4.88-.29-6.41-2.62l2.36-5.48c.28-.51.28-1.25.11-1.84-.57-1.97-2.84-3.55-4.32-3.12-.29.08-.73.42-.94.8-5.89,13.54-15.44,29.53-19.97,30.84-1.18.34-2.43.06-2.86-1.41-1.17-4.03,2.39-12,8.24-20.52.41-.44.33-1.06.16-1.65-.54-1.87-2.67-3.71-4.05-3.31-.39.11-.8.55-1.6,1.85-2.83,4.19-5.23,8.31-7.02,12.23-.07.09-.14.2-.22.32-2.07,3.16-4.51,5.79-7.85,6.75-.88.26-1.6.36-2.38.26.58-3.15.63-5.94-.12-8.5-1.22-4.23-4.33-6.85-10.33-5.11-7.72,2.24-16.32,11.22-20.08,20.21-7.44,10.9-15.98,20.19-21.6,21.82-1.87.54-3.54.28-4.2-1.98-.63-2.17-.23-6.33,2.54-13.32,11.39-30.28,44.02-74.82,39.75-89.57-1.11-3.84-4.97-5.39-8.71-4.3-11.61,3.36-29.12,30.19-45.79,60.61,7.69-18.75,12.61-34.15,10.42-41.73-1.03-3.54-4.39-5.23-7.54-4.32-7.38,2.14-17.12,16.37-29.7,39.95,5.96-17.72,9.76-33.33,7.82-40.02-1.48-5.12-5.33-7.73-10.35-6.28-30.21,8.75-56.96,56.27-53.06,69.75.6,2.07,1.97,3.48,4.53,2.74,3.74-1.08,8.48-11.95,7.88-14.01-.26-.89-.89-1.24-1.75-1.63,9.35-25.53,26.6-43.64,39.89-47.49,2.56-.74,4.28.79,5.11,3.64,2.17,7.48-9.24,39.89-17.99,59.38-8.33,18.73-14.92,33.54-25.23,53.16-.59.92-.4,1.93-.12,2.91.74,2.56,3.34,4.9,5.11,4.39.3-.09.76-.33.97-.71,23.9-48.94,55.47-111.51,63.93-113.96,1.18-.34,2.01.7,2.27,1.58,2.54,8.76-14.47,49.09-34.9,96.38-.29.83-.42,1.51-.22,2.2.66,2.26,3.56,4.19,5.13,3.74.49-.14.96-.38,1.18-1.09,26.95-63.79,61.36-116.2,69.63-118.6,1.38-.4,2.08.57,2.34,1.46,2.48,8.56-25.59,49-37.23,79.14-4.16,10.69-5.2,18.14-3.94,22.47,1.22,4.23,4.54,5.72,9.55,4.27,7.41-2.15,15.84-10.91,22.56-19.5.07.36.15.71.25,1.06,1.77,6.1,5.63,8.39,11.53,6.68,7.38-2.14,14.42-9.51,18.21-17.75,1.35.25,2.91.12,4.78-.42,1.66-.48,3.14-1.3,4.48-2.34-.1,1.88.05,3.65.52,5.27,1.05,3.64,3.97,5.25,7.42,4.25,6.2-1.79,13.98-9.17,21.46-22.75,2.35,2.95,6.06,4,10.49,2.72,1.39-.4,2.71-1.11,3.95-1.98.06,1.01.21,1.99.48,2.94,1.22,4.23,6.15,6.86,11.36,5.35,15.84-4.59,29.61-25.53,31.16-27.9,0,0,0,0,0-.01,2.07-3.16,4.59-8.04,5.89-11.29.67,2.69,1.43,4.92,1.72,8.14.78,8.2-3.34,13.87-6.88,14.9-1.58.46-2.75-.27-3.61-1.41-.21-.37-.54-.38-.83-.29-1.38.4-3.25,3.5-2.85,4.88.8,2.75,3.8,5.4,8.82,3.95,11.71-3.39,13.07-15.62,11.92-22.54ZM367.1,283.41c1.38-.4,2.13.34,2.38,1.23.91,3.15-7.01,11.52-13.9,13.52,2.07-6.47,8.27-13.8,11.51-14.75ZM285.94,323.88c-3.81,4.52-7.05,6.95-9.71,7.72-2.56.74-4.98-.26-5.75-2.92-1-3.44,1.07-8.84,4.24-12.96,3.56-4.66,7.57-7.74,10.82-8.68,1.28-.37,2.35-.36,3.25-.19-2.13,1.47-3.04,4.61-2.07,7.96.51,1.77,1.26,3.26,2.32,4.34-.67,1.37-1.9,3-3.11,4.74Z"/>
</svg>