<?xml version="1.0" encoding="UTF-8"?>
<svg id="Ebene_1" xmlns="http://www.w3.org/2000/svg" version="1.1" viewBox="0 0 1000 1000">
  <!-- Generator: Adobe Illustrator 29.1.0, SVG Export Plug-In . SVG Version: 2.1.0 Build 142)  -->
  <defs>
    <style>
      .st0 {
        fill: #ffe163;
      }

      .st1 {
        fill: #d11317;
      }
    </style>
  </defs>
  <g>
    <path class="st0" d="M270.35,329.3h15.21c4.98,0,9.6-.47,13.87-1.4,4.27-.93,7.96-2.51,11.07-4.73,3.11-2.22,5.56-5.2,7.34-8.94,1.78-3.73,2.67-8.36,2.67-13.87s-.96-10.25-2.87-13.94c-1.91-3.69-4.49-6.62-7.74-8.8-3.25-2.18-7.05-3.71-11.4-4.6-4.36-.89-8.98-1.33-13.87-1.33h-35.08v94.44h20.81v-36.81ZM270.35,289.29h10.67c1.95,0,4,.11,6.14.33,2.13.22,4.07.73,5.8,1.53,1.73.8,3.16,1.93,4.27,3.4,1.11,1.47,1.67,3.4,1.67,5.8,0,2.22-.42,4.07-1.27,5.54-.85,1.47-1.96,2.62-3.33,3.47-1.38.85-2.93,1.45-4.67,1.8-1.73.36-3.53.53-5.4.53h-13.87v-22.41Z"/>
    <polygon class="st0" points="391.06 346.91 352.52 346.91 352.52 271.68 331.71 271.68 331.71 366.12 391.06 366.12 391.06 346.91"/>
    <polygon class="st0" points="467.23 346.91 421.47 346.91 421.47 327.7 462.42 327.7 462.42 308.49 421.47 308.49 421.47 290.89 464.82 290.89 464.82 271.68 400.67 271.68 400.67 366.12 467.23 366.12 467.23 346.91"/>
    <path class="st0" d="M502.3,346.11h36.68l8.14,20.01h23.48l-41.08-94.44h-17.21l-40.82,94.44h22.94l7.87-20.01ZM520.31,299.16l11.6,29.34h-23.08l11.47-29.34Z"/>
    <path class="st0" d="M613.08,346.91c-1.38.8-2.93,1.4-4.67,1.8-1.73.4-3.45.6-5.13.6-3.47,0-6.83-.78-10.07-2.33-3.25-1.55-5.94-3.76-8.07-6.6l-14.81,16.27c4.54,4.18,9.42,7.2,14.67,9.07,5.25,1.87,10.94,2.8,17.07,2.8,4.89,0,9.54-.62,13.94-1.87,4.4-1.24,8.27-3.16,11.6-5.74,3.33-2.58,5.98-5.82,7.94-9.74,1.96-3.91,2.93-8.49,2.93-13.74,0-5.51-1.07-9.91-3.2-13.21-2.13-3.29-4.82-5.91-8.07-7.87-3.25-1.95-6.74-3.47-10.47-4.54-3.74-1.07-7.23-2.13-10.47-3.2-3.25-1.07-5.94-2.35-8.07-3.87-2.13-1.51-3.2-3.69-3.2-6.54,0-1.78.44-3.29,1.33-4.54.89-1.24,2.04-2.24,3.47-3,1.42-.75,2.93-1.31,4.54-1.67,1.6-.35,3.16-.53,4.67-.53,2.58,0,5.31.51,8.2,1.53,2.89,1.02,5.18,2.6,6.87,4.73l14.27-15.61c-4-3.56-8.49-6.09-13.47-7.6-4.98-1.51-10.14-2.27-15.47-2.27-4.62,0-9.12.65-13.47,1.93-4.36,1.29-8.2,3.22-11.54,5.8-3.33,2.58-6,5.78-8,9.6-2,3.82-3,8.27-3,13.34s1.09,9.47,3.27,12.67c2.18,3.2,4.91,5.78,8.2,7.74,3.29,1.96,6.85,3.51,10.67,4.67,3.82,1.16,7.38,2.31,10.67,3.47,3.29,1.16,6.02,2.56,8.2,4.2,2.18,1.65,3.27,3.89,3.27,6.74,0,1.69-.42,3.16-1.27,4.4-.85,1.25-1.96,2.27-3.33,3.07Z"/>
    <polygon class="st0" points="718.65 346.91 672.9 346.91 672.9 327.7 713.85 327.7 713.85 308.49 672.9 308.49 672.9 290.89 716.25 290.89 716.25 271.68 652.09 271.68 652.09 366.12 718.65 366.12 718.65 346.91"/>
    <path class="st0" d="M261.61,476.33c-9.87-.67-12.4-4-12.4-13.87v-29.74l27.74,44.95h42.28v-1.33c-4.67-.4-7.2-1.07-11.2-3.73-6.67-4.54-10.8-11.34-15.34-18.01-2.53-3.73-4.94-7.34-7.47-11.07-6.4-9.47-12.67-19.07-19.07-28.54,7.34-7.74,16.01-14.14,25.34-19.21,5.2-2.8,10-4.54,15.74-5.74v-1.33h-36.28v1.33c1.87,1.33,2.4,2.93,2.4,5.2,0,10.27-8.54,19.07-14.94,26.14-3.07,3.47-6,6.94-9.2,10.27v-22.94c0-4.27-.4-11.34,2.4-14.94,2.4-3.2,6.27-3.47,10-3.73v-1.33h-51.08v1.33c3.6.27,7.74.53,10,3.73,2.13,2.93,2.4,6.67,2.4,10.27v52.28c0,4.53.4,12.4-2.4,16.27-2.4,3.2-6.27,3.47-10,3.73v1.33h51.08v-1.33Z"/>
    <path class="st0" d="M412.6,439.79h-1.33c-6.14,17.21-22.27,36.28-42.01,36.28-7.74,0-7.87-5.33-7.87-11.74v-31.48c6.4.27,10.8,1.2,15.6,5.47,4.54,3.87,7.07,8.8,8.4,14.54h1.33v-41.08h-1.33c-.53,3.74-1.07,6-3.2,9.2-4.93,7.07-12.67,9.6-20.81,10.4v-41.08h3.73c13.2,0,22.81,4.67,31.34,14.54,4.4,5.2,6.27,8.27,8.8,14.54h1.33l-5.33-30.68h-78.56v1.33c3.6.27,7.74.53,10,3.73,2.13,2.93,2.4,6.67,2.4,10.27v50.82c0,4.8.53,13.74-2.4,17.74-2.4,3.2-6.27,3.47-10,3.73v1.33h83.76l6.14-37.88Z"/>
    <path class="st0" d="M419.41,476.33v1.33h83.76l6.14-37.88h-1.33c-6.14,17.21-22.27,36.28-42.01,36.28-7.74,0-7.87-5.33-7.87-11.74v-31.48c6.4.27,10.8,1.2,15.6,5.47,4.54,3.87,7.07,8.8,8.4,14.54h1.33v-41.08h-1.33c-.53,3.74-1.07,6-3.2,9.2-4.93,7.07-12.67,9.6-20.81,10.4v-41.08h3.73c13.2,0,22.81,4.67,31.34,14.54,4.4,5.2,6.27,8.27,8.8,14.54h1.33l-5.34-30.68h-78.56v1.33c3.6.27,7.74.53,10,3.73,2.13,2.93,2.4,6.67,2.4,10.27v50.82c0,4.8.53,13.74-2.4,17.74-2.4,3.2-6.27,3.47-10,3.73Z"/>
    <path class="st0" d="M554.79,439.38c12,0,25.08.13,36.01-5.6,7.74-4,13.34-10.8,13.34-19.74,0-20.81-26.54-25.34-42.41-25.34h-45.62v1.33c3.6.27,7.74.53,10,3.73,2.13,2.93,2.4,6.67,2.4,10.27v50.82c0,4.8.53,13.6-2.4,17.74-2.27,3.2-6.4,3.47-10,3.73v1.33h52.82v-1.33c-4-.27-8.67-.4-11.47-3.73-3.33-4-2.67-12.94-2.67-17.74v-15.47ZM554.79,390.3h3.47c15.34,0,17.87,10,17.87,23.34s-2,24.28-18.01,24.28h-3.33v-47.62Z"/>
    <path class="st0" d="M700.44,476.33c-9.87-.67-12.4-4-12.4-13.87v-53.35c0-4.13-.4-11.74,2.4-15.34,2.4-3.07,6.4-3.47,10-3.73v-1.33h-51.08v1.33c3.6.27,7.74.53,10,3.73,2.13,2.93,2.4,6.67,2.4,10.27v52.15c0,4.54.4,12.54-2.4,16.41-2.4,3.2-6.27,3.47-10,3.73v1.33h51.08v-1.33Z"/>
    <path class="st0" d="M710.04,384.7l-4,31.08h1.33c3.6-8,9.47-14.8,16.67-19.74,5.2-3.6,7.87-4.67,14.14-6v68.96c0,12.14-.8,16.54-14.14,17.34v1.33h54.55v-1.33c-3.87-.27-8.8-.4-11.47-3.73-3.07-3.73-2.67-12.14-2.67-16.81v-65.75c6,1.2,8.4,2.13,13.47,5.47,3.2,2.13,6,4.67,8.67,7.34,4.4,4.53,5.87,7.07,8.27,12.94h1.33l-3.6-31.08c-2.27,2-3.6,3.07-6.67,3.47-3.47.53-7.2.53-10.8.53h-46.55c-3.87,0-7.87.13-11.6-.4-3.2-.4-4.67-1.33-6.94-3.6Z"/>
    <rect class="st0" x="182.72" y="494.78" width="20.81" height="94.44"/>
    <polygon class="st0" points="288.49 560.4 288.23 560.4 248.08 494.78 219.8 494.78 219.8 589.21 240.61 589.21 240.61 521.99 240.87 521.99 282.09 589.21 309.3 589.21 309.3 494.78 288.49 494.78 288.49 560.4"/>
    <polygon class="st0" points="317.17 513.18 344.11 513.18 344.11 589.21 364.92 589.21 364.92 513.18 391.86 513.18 391.86 494.78 317.17 494.78 317.17 513.18"/>
    <polygon class="st0" points="421.34 550.8 462.29 550.8 462.29 531.59 421.34 531.59 421.34 513.98 464.69 513.98 464.69 494.78 400.53 494.78 400.53 589.21 467.09 589.21 467.09 570.01 421.34 570.01 421.34 550.8"/>
    <path class="st0" d="M548.05,540.46c3.47-4.67,5.2-10.34,5.2-17.01,0-5.51-.96-10.11-2.87-13.8-1.91-3.69-4.49-6.62-7.74-8.8-3.25-2.18-7.03-3.73-11.34-4.67-4.31-.93-8.87-1.4-13.67-1.4h-36.55v94.44h20.81v-37.75h10.27l19.74,37.75h24.94l-24.01-39.88c6.67-1.24,11.74-4.2,15.21-8.87ZM529.98,529.32c-1.11,1.42-2.51,2.47-4.2,3.13s-3.58,1.07-5.67,1.2c-2.09.13-4.07.2-5.94.2h-12.27v-21.47h13.6c1.87,0,3.78.13,5.73.4,1.96.27,3.69.78,5.2,1.53,1.51.76,2.76,1.85,3.73,3.27.98,1.42,1.47,3.33,1.47,5.74,0,2.58-.56,4.58-1.67,6Z"/>
    <polygon class="st0" points="633.55 560.4 633.29 560.4 593.14 494.78 564.86 494.78 564.86 589.21 585.67 589.21 585.67 521.99 585.93 521.99 627.15 589.21 654.36 589.21 654.36 494.78 633.55 494.78 633.55 560.4"/>
    <path class="st0" d="M701.98,494.78l-40.82,94.44h22.94l7.87-20.01h36.68l8.14,20.01h23.48l-41.08-94.44h-17.21ZM698.51,551.6l11.47-29.34,11.6,29.34h-23.08Z"/>
    <polygon class="st0" points="788.68 570.01 788.68 494.78 767.87 494.78 767.87 589.21 827.22 589.21 827.22 570.01 788.68 570.01"/>
  </g>
  <g>
    <path class="st1" d="M389.35,670.33c5.52-3.15,10.87-6.07,15.42-8.2,1.47-.59,2.3-4.02,1.95-5.85-.15-.81-.56-1.27-1.07-1.17-.61.12-1.47.6-2.22,1.06l-7.5,4.37c3.53-5.84,7.66-12.42,15.88-25.26.29-.69.34-1.54.17-2.46-.5-2.65-2.63-5.51-4.26-5.2-.31.06-.41.08-.65.44-6.08,9.06-24.93,28.66-37.75,31.09-7.23,1.37-11.96-4.69-13.14-10.9-2.18-11.5,3.58-29.46,14.21-44.03,23.14-32.01,46.25-47.99,58.98-50.41,6.31-1.2,9.85.77,10.73,5.45,1.41,7.43-5.76,21.34-33.53,37.25-1.02.72-1.42,1.43-1.26,2.24.35,1.83,3.64,3.63,6.8,3.03.71-.13,1.3-.35,2.06-.81,25.02-15.39,38.18-33.28,35.85-45.6-1.51-7.94-7.99-11.56-18.58-9.55-16.49,3.13-42,19.25-65.84,52.55-16.79,23.22-21.38,42.96-18.98,55.58,1.74,9.16,7.43,16.41,18.53,14.31,9.97-1.89,22.13-10.63,30.21-18.59-4.02,6.03-8.74,12.83-13.07,18.93-29.23,17.67-48.02,31.99-46.07,42.27.77,4.07,3.19,5.72,8.18,4.78,10.79-2.05,22.84-14.14,35.32-31.69,4.25-5.97,7.25-10.13,9.64-13.64ZM372.04,682.48c-10.45,13.26-18.16,24.32-24.68,25.56-1.12.21-2.15-.75-2.36-1.87-.91-4.78,13.1-15.98,29.24-26.53l-2.2,2.84Z"/>
    <path class="st1" d="M445.22,628c-.19-1.02,1.24-2.34,1.03-3.46-.23-1.22-2.12-1.71-3.34-1.48-.61.12-1.08.42-1.33.78-6.12,8.86-10.72,15.21-12.04,17.15-.93,1.23-7.95,10.36-16.05,16.54-.92.7-1.11,1.37-.98,2.08.27,1.42,2.02,2.88,3.75,2.56.41-.08,1.16-.54,1.72-.96,7.06-5.56,12.12-12.84,15.45-16.95,1.79-2.24,6.22-8.35,7.19-9.9.74,1.13,2.79,1.9,5.02,1.47-1.38,2.16-8.75,11.68-7.3,19.31.52,2.75,2.4,5.98,7.49,5.01,5.74-1.09,11.65-6.18,16.87-11.86.04.28.07.56.12.84.93,4.89,3.85,7.5,8.53,6.61,6.51-1.24,12.43-7.31,17.3-13.3-.34,1.54-.38,3.02-.11,4.45.58,3.05,3.67,4.89,8.35,4,5.3-1,11.5-6.66,16.49-12.2,1.41,5.54,5.71,8.62,11.31,7.56,7.85-1.49,15.71-8.11,21.55-14.21.02.42.06.84.14,1.24.87,4.58,4.46,7.38,9.75,6.38,4.95-.94,11.01-6.48,15.99-11.96.02.13.03.26.05.38.83,4.38,5.53,7.49,11.74,6.31,9.67-1.83,15.07-7.81,18.43-12.35.25-.36.39-.71.3-1.22-.25-1.32-2.11-2.76-3.43-2.51-.41.08-.69.24-.94.6-1.71,2.12-7,7.55-12.91,8.67-2.85.54-4.38-.33-4.98-3.48-.06-.31-.13-.71-.13-1.24,12.89-2.65,23.53-12.16,21.92-20.61-.66-3.46-3.22-4.77-6.28-4.19-8.05,1.53-17.94,10.27-22.04,19.45-4.43,5.53-11.77,13.95-16.58,14.86-1.83.35-2.82-.41-3.15-2.14-.89-4.68,5.95-13.67,11.89-22.39.33-.48.39-.71.32-1.11-.29-1.53-2.87-3.46-4.19-3.21-.2.04-.49.2-.92.7-3.54,4.3-7.25,9.21-10.09,13.98-2.93,3.63-15.61,18.84-24.79,20.58-2.04.39-4.83-.45-5.41-3.51-1.33-7.02,8.49-18.59,12.46-19.34,2.75-.52,1.42,6.37,4.88,5.72,3.26-.62,5.8-5,5.18-8.26-.66-3.46-2.95-5.56-6.62-4.86-8.79,1.67-19.17,11.45-22.65,20.88-4.71,5.66-12.1,13.75-16.39,14.57-1.42.27-2.54-.04-2.89-1.88-.73-3.87,2.83-8.44,5.73-12.05,2.41-2.88,4.46-5.38,5.7-7.2.66-.97.85-1.64.73-2.25-.5-2.65-2.41-4.39-3.84-4.12-.51.1-.82.68-2.71,2.94l-2.76,3.79c-1.51-2.98-4.87-5.09-9.55-4.2-8.8,1.67-18.8,9.66-23.26,18.53-5.27,6.27-12.08,13.48-16.18,14.26-1.42.27-2.51-.47-2.78-1.9-.73-3.87,5.97-13.57,10.1-19,.25-.36.35-.91.28-1.32-.23-1.22-1.46-2.68-2.78-2.42-.92.17-2.63,1.13-4.67,1.52-1.22.23-3.54.25-3.71-.67ZM594.45,604.24c1.43-.27,2.11.55,2.28,1.47.62,3.26-8.16,10.93-15.28,12.28,2.7-6.31,9.64-13.11,13-13.75ZM487.92,625.18c2.85-.54,5.16.5,6.03,2.86-6.65,8.85-14.63,18.48-19.62,19.43-2.24.42-3.63-.79-4.03-2.92-.48-2.54.81-6.27,5.3-11.55,2.55-2.7,7.85-6.97,12.33-7.82Z"/>
    <path class="st1" d="M571.06,596.02c3.77-.71,7.69-6.73,6.91-10.8-.42-2.24-1.94-3.01-3.77-2.66-4.17.79-7.6,6.61-6.85,10.58.42,2.24,2.08,3.19,3.71,2.88Z"/>
    <path class="st1" d="M509.28,710.54c-4.17.79-7.6,6.61-6.85,10.58.42,2.24,2.08,3.19,3.71,2.88,3.77-.71,7.69-6.73,6.91-10.8-.42-2.24-1.94-3.01-3.77-2.66Z"/>
    <path class="st1" d="M602.49,733.35c-.41.08-.69.24-.94.6-1.71,2.12-7,7.55-12.91,8.67-2.85.54-4.39-.33-4.98-3.48-.06-.3-.14-.71-.13-1.24,12.89-2.65,23.53-12.16,21.93-20.61-.66-3.46-3.22-4.77-6.28-4.19-7.86,1.49-17.46,9.86-21.73,18.79-4.36,4.99-12.02,12.7-19.18,14.06-2.75.52-4.1-2.17-4.49-4.21-.41-2.14-.13-5.14.57-8.65,16.18-18.67,30.91-37.18,45.05-55.99,15.59-20.67,28.12-39.07,26.54-47.42-.31-1.63-1.15-2.73-2.58-2.46-6.82,1.29-27.01,21.57-46.02,49.22-12.9,18.83-27.32,41.06-31.06,58.39-2.62,3.29-12.8,15.82-22.12,17.59-2.75.52-4.1-2.17-4.49-4.21-.41-2.14-.13-5.14.57-8.65,16.18-18.67,30.91-37.18,45.05-55.99,15.59-20.67,28.12-39.07,26.54-47.42-.31-1.63-1.15-2.73-2.58-2.46-6.82,1.29-27.01,21.57-46.02,49.22-12.9,18.84-27.34,41.09-31.07,58.43-2.54,3.28-13.42,17.81-19.83,19.02-1.83.35-2.82-.41-3.15-2.14-.89-4.68,5.95-13.67,11.89-22.39.33-.48.39-.71.32-1.11-.29-1.53-2.87-3.46-4.19-3.21-.2.04-.49.2-.92.7-3.53,4.29-7.23,9.18-10.07,13.94-8.9,11.08-19.18,20.6-25.34,21.77-1.93.37-3.6-.06-4.04-2.4-.42-2.24.37-6.4,3.83-13.17,14.35-29.4,51.46-71.12,48.57-86.39-.75-3.97-4.49-5.9-8.36-5.16-12.01,2.28-32.19,27.61-51.89,56.65,9.53-18.15,15.96-33.18,14.47-41.02-.69-3.66-3.93-5.69-7.18-5.07-7.63,1.45-18.8,14.85-33.71,37.39,7.69-17.27,13-32.62,11.69-39.54-1-5.29-4.63-8.29-9.82-7.31-31.25,5.93-62.72,51.22-60.08,65.17.41,2.14,1.65,3.69,4.29,3.19,3.87-.73,9.68-11.22,9.28-13.36-.17-.92-.78-1.33-1.61-1.8,11.85-24.81,30.95-41.4,44.69-44.01,2.65-.5,4.23,1.2,4.79,4.15,1.47,7.73-13.11,39.28-23.78,58.07-10.18,18.06-18.22,32.35-30.48,51.12-.68.87-.59,1.9-.4,2.92.5,2.65,2.89,5.25,4.73,4.9.31-.06.8-.26,1.04-.62,28.73-46.99,66.49-106.98,75.24-108.64,1.22-.23,1.96.89,2.14,1.81,1.72,9.06-19.25,48.04-44.33,93.71-.37.81-.56,1.48-.43,2.19.44,2.34,3.19,4.56,4.81,4.25.51-.1,1-.29,1.29-.98,33.22-61.66,72.87-111.14,81.42-112.76,1.42-.27,2.04.77,2.22,1.69,1.68,8.85-30.44,46.89-45.03,76.12-5.2,10.37-6.96,17.77-6.11,22.25.83,4.38,4.02,6.2,9.21,5.21,7.46-1.41,16.5-9.05,23.96-16.84,0,.56.05,1.1.15,1.62.87,4.58,4.46,7.38,9.75,6.38,6.43-1.22,14.74-10.21,20.12-16.75.06.98.16,1.94.34,2.86.93,4.88,4.66,9.03,9.75,8.06,8.67-1.64,18.18-11.06,23.98-17.69.05,1.09.17,2.14.36,3.16.93,4.88,4.66,9.03,9.75,8.06,6.82-1.29,14.15-7.39,19.8-13.16.04.32.08.63.14.94.83,4.38,5.53,7.49,11.74,6.31,9.67-1.83,15.07-7.81,18.43-12.35.25-.36.39-.71.3-1.22-.25-1.32-2.11-2.76-3.43-2.51ZM583.47,680.34c17.79-25.2,29.07-37.99,32-40.33.82-.68,1.39-1,1.9-1.1.3-.06.53,0,.58.31.06.3-.17.77-.54,1.58-2.78,5.9-10.21,16.8-21.35,31.99-11.82,16.05-23.82,31.72-36.47,46.77,5.25-11.22,13.31-24.35,23.88-39.22ZM549.37,686.8c17.78-25.2,29.07-37.99,32-40.34.82-.68,1.39-1,1.9-1.1.31-.06.53,0,.59.31.06.3-.17.77-.54,1.58-2.78,5.91-10.2,16.8-21.35,31.99-11.82,16.05-23.82,31.72-36.47,46.77,5.25-11.22,13.31-24.35,23.88-39.22ZM597.71,719.28c1.42-.27,2.11.55,2.28,1.47.62,3.26-8.15,10.93-15.28,12.28,2.7-6.31,9.64-13.11,13-13.75Z"/>
    <path class="st1" d="M622.46,726.93c-5.09.97-9.18,8.28-8.24,13.27.5,2.65,2.52,3.84,4.56,3.46,4.68-.89,9.37-8.42,8.42-13.41-.5-2.65-2.4-3.76-4.74-3.32Z"/>
    <path class="st1" d="M664.18,665.03c-.56-2.95-3.72-5.73-5.86-5.32-.61.12-1.16.54-1.56,1.24l-28,53.07c-.43.5-.42,1.13-.32,1.64.29,1.53,1.95,2.48,3.27,2.23.81-.15,1.37-.58,1.76-1.28,9.37-16.75,19.69-32.41,30.15-48.42.66-.97.75-2.15.56-3.16Z"/>
    <path class="st1" d="M689.32,660.26c-.56-2.95-3.72-5.73-5.86-5.32-.61.12-1.16.54-1.56,1.24l-28,53.07c-.43.5-.42,1.13-.32,1.64.29,1.53,1.95,2.48,3.27,2.23.81-.15,1.37-.58,1.76-1.28,9.37-16.75,19.69-32.41,30.15-48.42.66-.97.75-2.15.56-3.17Z"/>
    <path class="st1" d="M647.6,722.16c-5.09.96-9.19,8.28-8.24,13.27.5,2.65,2.52,3.84,4.56,3.46,4.68-.89,9.37-8.42,8.42-13.41-.5-2.65-2.4-3.76-4.74-3.32Z"/>
    <path class="st1" d="M672.74,717.39c-5.09.96-9.18,8.28-8.24,13.27.5,2.65,2.52,3.84,4.56,3.46,4.68-.89,9.37-8.42,8.42-13.41-.5-2.65-2.4-3.76-4.74-3.32Z"/>
    <path class="st1" d="M714.46,655.5c-.56-2.95-3.72-5.72-5.86-5.32-.61.12-1.16.54-1.56,1.24l-28,53.07c-.43.5-.42,1.13-.32,1.64.29,1.53,1.95,2.48,3.27,2.23.81-.16,1.37-.58,1.76-1.28,9.37-16.75,19.69-32.41,30.15-48.42.66-.97.75-2.15.56-3.17Z"/>
  </g>
  <path class="st0" d="M758.32,891.63c-122.11,89.82-287.42,109.48-429.16,55.71C47.53,841.81-54.84,502.94,98.59,250.14,226.53,39.67,491.35-37.33,712.06,73.52c199.98,98.78,304.28,335.18,243.19,549.74-7.15,25.21-16.35,50.44-27.62,74.08-25.61,54.46-61.93,103.56-106.19,143.32l-1.55-1.62c82.62-84.2,131.3-199.16,134.22-317.24C963,208.84,662.85-25.84,363.47,62c-91.18,26.18-173.83,81.6-232.66,156.38C43.8,328.29,13.65,480.48,52.53,615.84c61.21,218.36,272.95,366.2,497.78,343.94,3.09-.12,7.79-.86,10.88-1.19,10.57-1.09,22.1-3.06,32.52-4.85,57.54-10.8,113.08-32.72,163.34-63.94l1.26,1.87h0v-.04Z"/>
</svg>