<?xml version="1.0" encoding="UTF-8"?>
<svg id="Ebene_1" xmlns="http://www.w3.org/2000/svg" version="1.1" viewBox="0 0 100 100">
  <!-- Generator: Adobe Illustrator 29.1.0, SVG Export Plug-In . SVG Version: 2.1.0 Build 142)  -->
  <path d="M70.31,33.65c3.89-2.97,7.85-6.25,11.52-9.49,6.04-5.17,12-10.21,17.32-16.28,0,0-.65-1.55-.65-1.55-8.45-.05-16.62,2.02-24.4,5.19-7.62,3.23-14.64,7.76-20.52,13.58-3.72,4.08-7.48,8.04-10.95,12.21-1.88,2.14-3.71,4.34-5.49,6.59C24.94,32.04,13.33,19.62,2.28,6.66c0,0-1.42.9-1.42.9,7.87,16.12,17.45,31.45,28.28,45.77.19.23.37.46.56.69-8.11,11.94-14.71,24.96-19.05,38.59l1.55.64c5.44-8.84,11.63-17.18,18.36-24.91,1.77-2.03,3.63-4.08,5.54-6.13,4.1,5.31,8.28,10.61,13.05,15.13,10.13,8.78,22.56,15.3,36.15,16.34,0,0,.77-1.49.77-1.49-3.89-5.39-8.03-9.97-12.45-14.77-2.33-2.71-5.06-5.48-7.53-8.02-5.98-6.49-13.45-11.35-20.12-17.12,2.03-1.9,4.07-3.74,6.11-5.47,5.34-4.82,12.5-8.89,18.22-13.17Z"/>
</svg>