<?xml version="1.0" encoding="UTF-8"?>
<svg id="Ebene_1" xmlns="http://www.w3.org/2000/svg" version="1.1" viewBox="0 0 500 500">
  <!-- Generator: Adobe Illustrator 29.1.0, SVG Export Plug-In . SVG Version: 2.1.0 Build 142)  -->
  <defs>
    <style>
      .st0 {
        fill: #f3df6e;
      }
    </style>
  </defs>
  <path class="st0" d="M258.98,160.48c-4.03,1.17-6.87,7.21-5.76,11.05.63,2.16,2.35,2.95,3.92,2.49,3.64-1.05,6.94-7.34,5.8-11.28-.63-2.16-2.19-2.78-3.96-2.27Z"/>
  <path class="st0" d="M246.53,218.37c4.76-1.38,10.17-7.34,14.55-13.18.05.2.09.4.15.6,1.37,4.72,4.49,7.02,9.01,5.71,6.3-1.82,11.55-8.36,15.79-14.7-.19,1.55-.09,3.01.31,4.39.86,2.95,4.07,4.47,8.59,3.16,7.05-2.04,14.96-12.91,19.47-19.85-.86,2.76-1.76,5.46-2.61,8.46-.17.9-.86,2.17-.58,3.15.29.98,3.23,1.94,4.41,1.6.79-.23,1.42-1.37,2.16-2.86,4.48-9.19,8.58-15.28,16.86-23.54-3.3,5.54-5.32,10.71-4.01,15.24,1.14,3.94,4.96,5.71,8.99,4.54,9.54-2.76,14.38-12.59,13.49-15.64-.23-.79-2.14-1.51-3.13-1.23-.3.08-.59.17-.7.52-1.21,4.3-5.09,8.19-8.24,9.11-1.87.54-2.87-.34-3.21-1.52-.88-3.05,2.16-8.73,5.16-13.12,2-3.03,6.61-8.1,6.1-9.87-.43-1.48-2.54-3.64-4.02-3.21-3.64,1.05-13.15,9.46-21.57,19.79,1.8-4.47,3.32-7.68,4.02-9.69.4-1.18.56-1.76.33-2.55-.51-1.77-3.31-4.05-4.98-3.57-.89.26-1.49.75-1.88,1.61-2.82,6.47-5.83,11.92-7.38,14.29-1.46,2.34-12.42,19.7-18.43,21.44-1.38.4-2.5.19-3.02-1.58-1.08-3.74,2-8.58,4.51-12.4,2.1-3.06,3.89-5.71,4.94-7.62.56-1.01.68-1.69.51-2.28-.74-2.56-2.79-4.1-4.17-3.7-.49.14-.74.75-2.39,3.15l-2.36,3.99c-1.77-2.79-5.26-4.55-9.79-3.24-8.67,2.51-17.96,11.62-21.38,20.95-3.83,5.85-10.36,15-15.06,16.37-1.77.51-2.81-.15-3.3-1.82-1.31-4.53,4.58-14.02,9.61-23.15.28-.51.32-.73.21-1.13-.43-1.48-3.15-3.14-4.43-2.77-.2.06-.46.24-.84.78-3.06,4.53-6.23,9.68-8.58,14.61-2.09,3.2-11.08,16.89-20.24,19.54-2.66.77-4.24-1.76-4.81-3.73-.6-2.07-.61-5.05-.24-8.57,14.18-19.89,26.96-39.48,39.13-59.32,13.41-21.8,24.04-41.09,21.7-49.16-.46-1.57-1.39-2.58-2.77-2.19-6.59,1.91-24.58,23.75-40.71,52.74-10.95,19.76-23.09,43.01-25.13,60.43-2.21,3.52-12.43,19.34-18.15,21-1.38.4-2.5.19-3.02-1.58-1.08-3.74,2-8.58,4.51-12.4,2.1-3.06,3.89-5.71,4.94-7.62.56-1.02.68-1.69.51-2.28-.74-2.56-2.79-4.1-4.16-3.7-.49.14-.74.75-2.4,3.15l-2.36,3.99c-1.77-2.79-5.26-4.55-9.79-3.24-8.69,2.52-18.01,11.66-21.4,21.01-3.59,5.59-9.14,13.74-12.21,14.63-1.77.51-3.22-.45-3.71-2.12-1.14-3.94.48-8.67,2.55-13.64,4.45-7.47,9.72-16.89,14.66-26.32l29.12-8.43c2.17-.63,4.38-4.04,3.95-5.51-.23-.79-.73-1.07-1.97-.92-8.13,1.39-16.92,3.09-26.19,5.67,4.08-8.01,7.49-15.39,9.37-20.31.7-2.01.89-3.56.63-4.45-.26-.88-.99-1.21-1.78-.98-.98.29-2.19,1.27-3.32,2.88-3.61,5.21-9.94,15.03-16.12,26.1-5.5,1.69-10.9,3.72-16.43,6.12,10.12-20.92,25.86-56.4,22.78-67.03-.97-3.35-3.66-5.66-7.99-4.4-30.3,8.78-63.53,59.03-59.68,72.31.51,1.77,2.18,3.1,4.64,2.39,3.54-1.03,9.05-12.22,8.39-14.48-.26-.89-.95-1.43-1.33-1.64,11.51-26.16,32.69-45.83,43.02-48.82,2.66-.77,4.32.56,5.01,2.92,2.34,8.07-14.47,42.47-24.79,62.42-10.3,19.3-18.04,34.55-30.03,54.66-.66,1.04-.64,2.21-.3,3.39.68,2.36,2.97,4.37,4.54,3.91.39-.11.63-.4,1.04-.83,11.25-19.7,21.52-38.62,30.98-57.28l15.14-4.39c-3.6,7.44-8.44,17.27-10.87,26.18-2.11,3.38-8.07,12.26-14.1,17.95-.74.75-.87,1.42-.67,2.11.4,1.38,2.26,2.65,3.93,2.17.39-.11.66-.3,1.1-.64,2.93-2.77,5.72-6.03,8.06-9.37.12,1.14.33,2.25.62,3.23,1.37,4.72,4.7,6.64,8.43,5.56,4.13-1.2,8.73-6.6,12.68-12.22.02.07.03.15.05.22,1.37,4.72,4.49,7.02,9.01,5.71,6.3-1.82,11.55-8.36,15.79-14.7-.19,1.55-.09,3.01.31,4.39.86,2.95,4.07,4.47,8.59,3.16,6.54-1.9,13.84-11.41,18.46-18.31.15.92.33,1.81.58,2.67,1.37,4.72,5.43,8.45,10.35,7.03,6.69-1.94,13.43-8.79,18.48-15.07.06.5.15.97.28,1.43,1.28,4.43,5.08,6.85,10.19,5.37ZM272.28,188.73c2.25-2.89,7.08-7.59,11.41-8.85,2.75-.8,5.12,0,6.2,2.26-5.72,9.34-12.68,19.56-17.5,20.96-2.17.63-3.65-.44-4.24-2.5-.71-2.46.22-6.25,4.14-11.86ZM238.09,150.21c15.16-26.46,25.07-40.11,27.73-42.69.74-.75,1.28-1.12,1.77-1.26.29-.08.52-.04.61.25.09.3-.1.77-.39,1.61-2.19,6.07-8.48,17.49-18.03,33.48-10.14,16.91-20.49,33.45-31.54,49.44,4.12-11.54,10.83-25.21,19.85-40.83ZM165.64,234.01c-2.16.63-3.65-.44-4.24-2.5-.71-2.46.22-6.25,4.14-11.86,2.26-2.89,7.08-7.59,11.41-8.85,2.75-.8,5.12,0,6.2,2.26-5.72,9.33-12.68,19.56-17.5,20.96Z"/>
  <path class="st0" d="M140.82,319.89c-4.03,1.17-6.87,7.22-5.76,11.05.63,2.16,2.35,2.95,3.92,2.49,3.64-1.05,6.94-7.34,5.8-11.28-.63-2.17-2.19-2.78-3.96-2.27Z"/>
  <path class="st0" d="M220.37,337.58c-3.74,1.08-13.28,8.64-23.27,16.87,6.53-15.75,12.15-30.6,11.8-31.78-.43-1.48-2.77-2.19-4.24-1.76-.89.26-1.25,1.21-1.77,2-6.21,11.71-18.45,30.19-26.42,32.5-1.18.34-1.9-.3-2.24-1.48-1.14-3.94,4.58-14.76,8.97-20.19.45-.66.47-1.31.3-1.9-.48-1.67-2.43-3.24-4.1-2.76-.39.11-.63.4-1.04.83-2.5,3.18-5.25,7.64-7.48,12.33-.08.11-.16.22-.25.36-2.07,3.16-10.97,18.11-15.2,19.33-1.77.51-3.22-.45-3.71-2.12-1.14-3.94.47-8.67,2.65-13.67,4.35-7.45,9.62-16.86,14.57-26.29l29.12-8.43c2.17-.63,4.47-4.07,4.05-5.54-.23-.79-.83-1.04-2.07-.89-8.13,1.39-16.92,3.09-26.29,5.69,4.08-8.01,7.58-15.42,9.47-20.34.7-2.01.89-3.56.63-4.45-.26-.89-.99-1.21-1.78-.98-.98.29-2.19,1.27-3.33,2.88-3.71,5.23-10.01,15.16-16.49,26.64-2.21.85-6,2.48-8.84,3.73-3.76,1.73-6.07,5.17-5.62,6.75.17.59.97.78,2.25.41l7.58-2.19c-3.61,7.57-8.41,17.52-10.89,26.51-1.79,2.78-11.54,19.02-17.93,20.87-1.77.51-2.82-.14-3.3-1.82-1.31-4.53,4.58-14.02,9.61-23.15.28-.51.32-.73.21-1.12-.43-1.48-3.15-3.14-4.43-2.77-.2.06-.46.24-.84.78-3.07,4.55-6.25,9.71-8.6,14.66-4.76,7.21-15.92,21.77-30.3,25.93-11.61,3.36-19.44-3.43-22.38-13.57-2.96-10.23-1.66-26.71,11.07-52.37,8.8-17.48,33.5-46.71,53.87-52.61,6.1-1.77,8.77,1.19,9.82,4.83,3.02,10.43-7.47,26.48-19.75,37.5-1.39,1.47-1.89,2.68-1.58,3.76.48,1.67,2.3,2.43,4.47,1.8.39-.11.88-.26,1.45-.53,2.33-1.53,7.74-6.4,13.28-12.7,3.43-3.98,7.06-9.51,6.4-11.77-.08-.29-.4-.63-.58-.9,4.7-7.33,6.64-16.11,4.76-22.6-1.74-6-7.59-9.64-17.33-6.82-20.47,5.93-46.59,30.24-60,54.27-13.55,24.29-18.61,47.3-14.23,62.45,4.25,14.66,14.75,21.85,29.81,17.49,10.42-3.02,20.43-12.42,27.6-20.88.05.71.13,1.4.31,2.03,1.28,4.43,5.08,6.85,10.19,5.37,5.61-1.62,12.13-9.61,16.79-16.26.08,1.15.26,2.23.55,3.24,1.37,4.72,4.7,6.64,8.43,5.55,4.04-1.17,8.53-6.36,12.42-11.86.05.82.17,1.58.37,2.29.97,3.35,4.12,4.67,7.27,3.76,5.51-1.6,11.71-7.44,17.07-14.33l-5.92,14.19-7.57,6.99c-16.28,14.85-38.08,37.9-34.63,49.81,1.37,4.72,5.24,5.2,7.9,4.43,12.49-3.62,24.33-26.46,33.27-43.44,2.36-4.74,5.22-10.68,7.97-17.03,12.82-10.96,21.37-16.43,27.74-20.19,2.09-1.25,2.76-4.1,2.24-5.88-.31-1.08-.93-1.76-1.92-1.47ZM176.3,383.51c-6.93,12.14-18.61,32.58-24.71,34.35-.69.2-1.31.27-1.62-.81-1.6-5.51,13.67-24.22,26.81-37.41l3.11-3.25c-1.1,2.45-2.33,4.83-3.59,7.12Z"/>
  <path class="st0" d="M320.35,261.17c-.26-.89-.72-1.39-1.81-1.08-7.97,2.31-25.09,8.01-35.84,11.76,8.74-15.86,17.91-32.06,27.93-49.36,13.18-4.56,26.04-9.14,39.12-12.93,4.43-1.28,8.61-7.08,8.02-9.15-.23-.79-.99-1.21-3.55-.47l-5.12,1.48c-11.51,3.33-23.34,7.4-35.27,11.5-.88-1.56-2.39-2.72-3.47-2.41-.3.09-.53.37-.6.5l-2.77,4.43c-9.23,3.1-20.64,7.15-24.28,8.21-2.66.77-3.14-.16-3.4-1.04-.31-1.08-.58-1.64-1.86-1.27-3.54,1.03-7.15,6.23-6.13,9.77.83,2.85,5.44,2.58,11.25.9,2.85-.83,11.62-3.69,17.71-5.88-10.7,17.18-20.28,33.81-29.16,49.93l-5.03,1.78c-2.6.97-4.74,5.74-4.17,7.71.2.69.71.97,1.4.77l2.56-.74c-10.19,18.95-18.37,36.35-27.41,55.61-.56,1.02-.39,2.35.01,3.73.74,2.56,2.62,5,4.49,4.46.39-.11,1.1-.64,1.46-1.59,10.61-23.02,21.28-44.34,32.73-65.57,13.53-4.45,35.05-11.54,39.18-12.73,2.85-.83,4.65-6.04,4-8.3Z"/>
  <path class="st0" d="M415.74,253.28c3.64-1.05,6.94-7.34,5.8-11.28-.63-2.17-2.19-2.78-3.96-2.27-4.03,1.17-6.87,7.21-5.76,11.05.63,2.17,2.35,2.95,3.92,2.49Z"/>
  <path class="st0" d="M455.06,270.47c-.31-1.08-1.98-1.67-2.96-1.38-.59.17-1.05.41-1.21.99-1.73,4.34-4.7,7.33-7.16,8.05-1.38.4-2.52-.23-2.92-1.61-1.08-3.74,4.61-13.92,8.17-19.64.21-.38.26-.93.15-1.32-.34-1.18-1.68-2.5-2.96-2.13-.89.26-2.49,1.36-4.45,1.93-1.18.34-3.46.57-3.72-.31-.28-.98,1-2.42.69-3.5-.34-1.18-2.24-1.48-3.42-1.14-.69.2-1.03.51-1.23.89-5.2,9.29-8.89,15.69-10.45,18.06,0,0,0,.01-.01.02-1.59,2.44-11.53,19.1-18.01,20.98-1.77.51-2.81-.14-3.3-1.82-1.31-4.53,4.58-14.02,9.61-23.15.28-.51.32-.73.21-1.13-.43-1.48-3.15-3.14-4.43-2.77-.2.06-.46.24-.84.78-3.09,4.57-6.28,9.76-8.64,14.73-2.09,3.33-12.44,19.42-18.21,21.09-1.38.4-2.5.19-3.02-1.58-1.08-3.74,2-8.58,4.51-12.4,2.1-3.06,3.89-5.71,4.94-7.62.56-1.01.68-1.69.51-2.28-.74-2.56-2.79-4.1-4.17-3.7-.49.14-.74.75-2.39,3.15l-2.36,3.99c-1.77-2.79-5.26-4.55-9.79-3.24-8.47,2.45-17.54,11.2-21.13,20.31-3.77,5.26-10.68,13.75-17.69,15.78-2.75.8-4.24-1.76-4.81-3.73-.6-2.07-.46-5.63-.09-9.15,14.24-19.69,26.8-38.9,38.97-58.74,13.42-21.8,24.04-41.09,21.7-49.16-.46-1.57-1.39-2.58-2.77-2.19-6.69,1.94-24.58,23.75-40.71,52.74-10.89,19.47-22.77,42.53-25.11,59.85-4.69,6.26-9.66,12.29-14.69,18.12-.31.41-.46.99-.29,1.58.43,1.48,2.67,2.96,3.95,2.59.29-.08.46-.24.7-.52l10.25-13.21c.03,1.59.33,3,.7,4.28,1.37,4.72,5.43,8.45,10.35,7.03,6.56-1.9,13.18-8.53,18.19-14.71.08.39.17.77.28,1.15,1.37,4.72,4.49,7.02,9.01,5.71,6.3-1.82,11.55-8.36,15.79-14.7-.19,1.55-.09,3.01.31,4.39.85,2.95,4.07,4.47,8.59,3.16,5.1-1.48,10.65-7.58,15.04-13.47.05.25.08.51.15.75,1.28,4.43,5.08,6.85,10.19,5.37,9.35-2.71,21.25-23.11,22.8-25.48,0,0,0,0,0-.01,1.56-2.38,5.34-8.79,6.14-10.41.83,1.04,2.92,1.61,5.08.98-1.16,2.26-7.53,12.31-5.39,19.69.77,2.66,2.92,5.66,7.84,4.24,11.02-3.19,13.85-14.78,13.45-16.16ZM348.09,243.54c15.16-26.46,25.07-40.11,27.73-42.69.74-.75,1.28-1.12,1.77-1.26.29-.08.52-.04.61.25.08.3-.1.77-.39,1.61-2.19,6.07-8.48,17.49-18.03,33.48-10.14,16.91-20.49,33.45-31.54,49.44,4.12-11.54,10.83-25.21,19.85-40.83ZM357.19,303.72c-2.16.63-3.65-.44-4.24-2.5-.71-2.46.22-6.25,4.14-11.86,2.25-2.89,7.08-7.59,11.41-8.85,2.76-.8,5.12,0,6.2,2.26-5.72,9.33-12.68,19.56-17.5,20.96Z"/>
</svg>