<?xml version="1.0" encoding="UTF-8"?>
<svg id="Ebene_1" xmlns="http://www.w3.org/2000/svg" version="1.1" viewBox="0 0 500 500">
  <!-- Generator: Adobe Illustrator 29.1.0, SVG Export Plug-In . SVG Version: 2.1.0 Build 142)  -->
  <defs>
    <style>
      .st0 {
        fill: #f3df6e;
      }
    </style>
  </defs>
  <path class="st0" d="M212.69,250.92c-.55-1.9-1.43-3.57-2.59-5,4.07-8.52,8.03-16.41,12.23-24.31,1.23.92,3.21,1.52,4.1,1.27,6.2-1.79,66.34-44.17,57.65-74.17-2.96-10.23-15.4-13.78-29.96-9.56-30.89,8.95-66.23,42.32-63.21,52.75.26.89,1.51,2.65,3.68,2.03,2.36-.68,8.65-5.49,12.5-10.23.71-.85.84-1.52.72-1.92-.23-.79-1.09-1.18-1.17-1.47-.09-.29.87-1.42,1.11-1.71,11.9-13.79,30.77-27.79,49.66-33.26,9.94-2.88,17.87-.16,19.89,6.82,5.76,19.87-29.35,48.17-50.91,62.09,7.42-13.77,15.74-28.13,26.26-46.31.66-1.04.7-2.02.38-3.1-.6-2.07-2.87-3.65-4.15-3.28-.49.14-1.18,1.09-1.39,1.47-19.97,31.26-32.38,54.35-43.92,78.24-5.5-2.19-12.85-2.23-20.85.09-30.89,8.95-66.23,42.32-63.21,52.75.26.89,1.52,2.65,3.68,2.03,2.36-.68,8.65-5.49,12.5-10.23.71-.85.84-1.52.73-1.92-.23-.79-1.09-1.18-1.17-1.47s.87-1.42,1.11-1.71c11.9-13.79,30.77-27.79,49.66-33.26,5.71-1.65,10.75-1.45,14.4.34-4.03,8.5-8.02,17.2-12.28,26.49-.22.7-.25,1.35.04,2.34.74,2.56,3.21,5.57,5.08,5.03.59-.17,1.15-1.19,1.58-2.27,4.01-9.13,7.66-17.26,11.15-24.8,5.31,19.86-29.54,47.93-50.99,61.79,7.42-13.77,15.74-28.13,26.26-46.32.66-1.04.7-2.01.38-3.1-.6-2.07-2.87-3.65-4.15-3.28-.49.14-1.18,1.09-1.39,1.47-28.84,45.14-41.92,73.25-59.36,111.36-.22.7-.25,1.35.04,2.33.74,2.56,3.21,5.57,5.08,5.03.59-.17,1.15-1.19,1.58-2.27,10.41-23.7,18.38-40.73,27.5-57.87,1.23.92,3.21,1.52,4.1,1.27,6.2-1.8,66.34-44.17,57.65-74.17Z"/>
  <path class="st0" d="M324.49,306.31c-3.74,1.08-13.28,8.65-23.27,16.87,6.53-15.75,12.14-30.6,11.8-31.79-.43-1.48-2.77-2.19-4.24-1.76-.89.26-1.25,1.21-1.76,2-6.21,11.71-18.45,30.19-26.42,32.5-1.18.34-1.9-.3-2.24-1.48-1.14-3.94,4.58-14.76,8.97-20.19.45-.66.47-1.31.3-1.9-.48-1.67-2.43-3.24-4.1-2.76-.39.11-.63.4-1.04.83-2.5,3.18-5.26,7.65-7.49,12.34-.08.11-.15.21-.25.35-2.07,3.16-10.96,18.11-15.2,19.33-1.77.51-3.22-.45-3.71-2.12-1.14-3.94.48-8.67,2.65-13.67,4.35-7.44,9.62-16.86,14.57-26.29l29.12-8.43c2.16-.63,4.47-4.07,4.05-5.54-.23-.79-.83-1.04-2.07-.89-8.13,1.39-16.92,3.09-26.09,5.64,3.98-7.98,7.39-15.36,9.27-20.28.7-2.01.89-3.56.63-4.45-.26-.88-.99-1.21-1.78-.98-.98.29-2.19,1.27-3.32,2.88-3.61,5.21-9.84,15.01-16.12,26.1-5.97,1.84-12.03,4.12-18.07,6.83-3.67,1.7-5.88,5.11-5.42,6.69.17.59.88.81,2.25.41l16.23-4.7c-3.61,7.57-8.41,17.52-10.89,26.51-4.67,7.11-12.47,18.11-17.26,19.5-1.38.4-2.52-.23-2.92-1.61-1.08-3.74,4.61-13.92,8.17-19.64.21-.38.26-.93.15-1.32-.34-1.18-1.68-2.5-2.96-2.13-.88.26-2.49,1.36-4.45,1.93-1.18.34-3.46.58-3.72-.31-.28-.98,1-2.42.69-3.51-.34-1.18-2.24-1.48-3.42-1.14-.69.2-1.03.51-1.23.89-5.2,9.29-8.89,15.69-10.45,18.06-1.46,2.34-12.42,19.7-18.42,21.44-1.38.4-2.5.19-3.02-1.58-1.08-3.74,2-8.58,4.51-12.4,2.1-3.06,3.89-5.71,4.94-7.62.56-1.01.68-1.69.51-2.28-.74-2.56-2.79-4.1-4.16-3.7-.49.14-.74.75-2.39,3.15l-2.36,3.99c-1.77-2.79-5.26-4.55-9.79-3.24-12.2,3.53-25.63,20.12-22.19,32.02,1.37,4.72,4.49,7.02,9.01,5.71,6.3-1.82,11.55-8.36,15.79-14.7-.19,1.55-.09,3.01.31,4.39.86,2.95,4.07,4.47,8.59,3.16,9.94-2.88,21.61-23.32,23-25.54,0,0,0,0,0,0,1.56-2.38,5.34-8.79,6.15-10.41.83,1.04,2.92,1.61,5.08.98-1.16,2.25-7.53,12.31-5.39,19.69.77,2.66,2.92,5.66,7.84,4.24,6.48-1.88,12.68-9.17,17.78-16.36.07,1.23.25,2.4.57,3.47,1.37,4.72,4.7,6.64,8.43,5.56,4.04-1.17,8.53-6.36,12.42-11.86.05.82.17,1.58.37,2.29.97,3.35,4.12,4.67,7.27,3.76,5.51-1.6,11.71-7.44,17.07-14.33l-5.92,14.19-7.57,6.99c-16.28,14.85-38.08,37.9-34.63,49.81,1.37,4.72,5.24,5.2,7.9,4.43,12.5-3.62,24.33-26.46,33.27-43.44,2.36-4.74,5.22-10.68,7.97-17.03,12.82-10.96,21.37-16.43,27.74-20.19,2.09-1.25,2.76-4.1,2.25-5.88-.31-1.08-.94-1.76-1.92-1.47ZM172.25,356.16c-2.17.63-3.65-.44-4.25-2.5-.71-2.46.22-6.25,4.14-11.86,2.25-2.89,7.08-7.59,11.41-8.85,2.75-.8,5.12,0,6.2,2.26-5.72,9.33-12.68,19.56-17.5,20.96ZM280.42,352.24c-6.93,12.14-18.61,32.58-24.71,34.35-.69.2-1.31.27-1.62-.81-1.6-5.51,13.67-24.22,26.81-37.41l3.11-3.25c-1.1,2.45-2.33,4.83-3.59,7.12Z"/>
  <path class="st0" d="M361.4,156.81c13.41-21.8,24.04-41.09,21.7-49.16-.46-1.57-1.39-2.58-2.77-2.19-6.59,1.91-24.58,23.76-40.71,52.74-10.94,19.74-23.07,42.97-25.13,60.38-2.01,2.98-4.38,5.43-7.58,6.36-.89.26-1.6.36-2.38.26.58-3.15.63-5.94-.11-8.5-1.23-4.23-4.33-6.85-10.33-5.11-7.62,2.21-16.08,10.98-19.93,19.85-1.78,2.29-3.86,4.1-6.51,4.87-.89.26-1.6.36-2.38.26.58-3.15.63-5.94-.11-8.5-1.23-4.23-4.33-6.85-10.33-5.11-11.41,3.31-24.74,21.35-21.55,32.37,1.77,6.1,5.63,8.39,11.53,6.68,7.38-2.14,14.42-9.51,18.21-17.75,1.35.25,2.91.12,4.78-.43,1.59-.46,3.01-1.24,4.31-2.21.07.81.2,1.59.42,2.34,1.77,6.1,5.63,8.39,11.53,6.68,7.38-2.14,14.42-9.51,18.21-17.75,1.35.25,2.91.12,4.78-.43,2.93-.85,5.3-2.76,7.36-5.08.16,1.21.39,2.38.71,3.49,1.37,4.72,5.43,8.45,11.24,6.77,9.25-2.68,13.44-11.78,14.47-14.85.11-.35.2-.8.11-1.1-.46-1.57-2.32-2.85-3.5-2.51-.39.11-.63.4-.84.78-1.2,2.48-3.28,6.71-8.2,8.13-3.74,1.08-5.32-1.44-5.89-3.41-.65-2.26-.61-5.05-.24-8.57,14.18-19.89,26.96-39.48,39.13-59.32ZM346.01,161.48c15.16-26.46,25.07-40.11,27.73-42.69.74-.75,1.28-1.12,1.77-1.26.3-.09.52-.04.61.25.08.3-.03.65-.39,1.61-2.19,6.07-8.48,17.49-18.03,33.48-10.14,16.91-20.49,33.45-31.54,49.44,4.12-11.54,10.83-25.21,19.85-40.83ZM255.14,246.88c-3.81,4.52-7.05,6.95-9.71,7.72-2.56.74-4.98-.26-5.75-2.92-1-3.44,1.06-8.84,4.24-12.96,3.56-4.66,7.57-7.74,10.82-8.68,1.28-.37,2.35-.36,3.25-.19-2.13,1.47-3.04,4.61-2.07,7.96.51,1.77,1.26,3.26,2.32,4.34-.67,1.37-1.9,3-3.11,4.74ZM294.39,235.51c-3.81,4.52-7.05,6.95-9.71,7.72-2.56.74-4.98-.26-5.75-2.92-1-3.44,1.07-8.84,4.24-12.96,3.56-4.66,7.57-7.74,10.82-8.68,1.28-.37,2.35-.36,3.25-.19-2.13,1.47-3.04,4.61-2.07,7.96.51,1.77,1.26,3.26,2.32,4.34-.67,1.37-1.9,3-3.11,4.74Z"/>
</svg>