<?xml version="1.0" encoding="UTF-8"?>
<svg id="Ebene_1" xmlns="http://www.w3.org/2000/svg" version="1.1" viewBox="0 0 896 1152">
  <!-- Generator: Adobe Illustrator 29.1.0, SVG Export Plug-In . SVG Version: 2.1.0 Build 142)  -->
  <defs>
    <style>
      .st0 {
        fill: #de75a5;
      }

      .st1 {
        fill: #f3df6e;
      }

      .st2 {
        fill: #dfe0c4;
      }
    </style>
  </defs>
  <path class="st2" d="M839,0h0S0,0,0,0v57h0v1095h896V0h0s-57,0-57,0ZM839,1037H57V57h782v980Z"/>
  <g>
    <g>
      <g>
        <path class="st1" d="M133.87,193.84c3.44,0,6.8-.34,10.24-1.01,1.93-.34,4.03-1.01,6.04-1.01,1.09,0,1.76.67,1.85,1.76h.84l.76-24.01h-.84c-1.93,7.64-8.56,23.17-18.3,23.17-12.76,0-14.35-18.55-14.35-27.7,0-7.72.59-28.29,12.17-28.29,6.8,0,11.67,6.04,14.94,11.33,2.1,3.44,3.53,6.8,4.78,10.58h.84l-1.34-22.33h-.84c-.25,1.18-.92,1.59-2.1,1.59-1.51,0-3.02-.42-4.53-.76-3.69-.84-7.47-1.51-11.33-1.51-16.37,0-30.22,12.25-30.22,28.96s14.69,29.21,31.39,29.21Z"/>
        <path class="st1" d="M190.7,191.91c-6.21-.42-7.81-2.52-7.81-8.73v-33.57c0-2.6-.25-7.39,1.51-9.65,1.51-1.93,4.03-2.18,6.3-2.35v-.84h-32.15v.84c2.27.17,4.87.34,6.3,2.35,1.34,1.85,1.51,4.2,1.51,6.46v32.82c0,2.85.25,7.89-1.51,10.32-1.51,2.01-3.95,2.18-6.3,2.35v.84h32.15v-.84Z"/>
        <path class="st1" d="M213.1,180.16h23.08l5.12,12.59h14.77l-25.85-59.42h-10.83l-25.68,59.42h14.44l4.95-12.59ZM224.44,150.61l7.3,18.47h-14.52l7.22-18.47Z"/>
        <path class="st1" d="M319.03,164.8c0-16.79-14.19-29.12-30.55-29.12s-30.47,12.42-30.47,29.12,14.18,29.04,30.47,29.04,30.55-12.34,30.55-29.04ZM279.08,186.12c-2.43-5.79-2.85-15.11-2.85-21.32s.42-15.53,2.85-21.4c1.68-4.03,4.95-6.63,9.4-6.63s7.81,2.52,9.48,6.63c2.43,5.79,2.85,15.19,2.85,21.4s-.42,15.53-2.85,21.32c-1.68,4.11-4.95,6.63-9.48,6.63s-7.72-2.6-9.4-6.63Z"/>
        <polygon class="st1" points="129.79 222.63 129.7 222.63 115.7 199.74 105.83 199.74 105.83 232.68 113.09 232.68 113.09 209.23 113.18 209.23 127.56 232.68 137.05 232.68 137.05 199.74 129.79 199.74 129.79 222.63"/>
        <path class="st1" d="M160.6,199.74h-6l-14.24,32.94h8l2.75-6.98h12.8l2.84,6.98h8.19l-14.33-32.94ZM153.38,219.56l4-10.24,4.05,10.24h-8.05Z"/>
        <path class="st1" d="M202.98,201.46c-1.21.19-2.51.19-3.77.19h-16.24c-1.35,0-2.74.05-4.05-.14-1.12-.14-1.63-.47-2.42-1.26l-1.4,10.84h.47c1.26-2.79,3.3-5.16,5.82-6.89,1.81-1.26,2.74-1.63,4.93-2.09v24.05c0,4.23-.28,5.77-4.93,6.05v.47h19.03v-.47c-1.35-.09-3.07-.14-4-1.3-1.07-1.3-.93-4.23-.93-5.86v-22.94c2.09.42,2.93.74,4.7,1.91,1.12.74,2.09,1.63,3.02,2.56,1.54,1.58,2.05,2.47,2.88,4.51h.47l-1.26-10.84c-.79.7-1.26,1.07-2.33,1.21Z"/>
        <path class="st1" d="M220.99,199.74l-14.24,32.94h8l2.75-6.98h12.8l2.84,6.98h8.19l-14.33-32.94h-6ZM219.78,219.56l4-10.24,4.05,10.24h-8.05Z"/>
        <polygon class="st1" points="252.16 199.74 244.9 199.74 244.9 232.68 265.61 232.68 265.61 225.98 252.16 225.98 252.16 199.74"/>
        <path class="st1" d="M284.22,232.12c-2.7,0-2.75-1.86-2.75-4.09v-10.98c2.23.09,3.77.42,5.44,1.91,1.58,1.35,2.47,3.07,2.93,5.07h.46v-14.33h-.46c-.19,1.3-.37,2.09-1.12,3.21-1.72,2.47-4.42,3.35-7.26,3.63v-14.33h1.3c4.61,0,7.96,1.63,10.93,5.07,1.54,1.81,2.19,2.88,3.07,5.07h.47l-1.86-10.7h-27.4v.47c1.26.09,2.7.19,3.49,1.3.74,1.02.84,2.33.84,3.58v17.73c0,1.68.19,4.79-.84,6.19-.84,1.12-2.19,1.21-3.49,1.3v.47h29.22l2.14-13.21h-.46c-2.14,6-7.77,12.65-14.66,12.65Z"/>
        <rect class="st1" x="306.83" y="199.74" width="6.98" height="22.05"/>
        <path class="st1" d="M313.37,225.63c-.39-.39-.85-.69-1.37-.91-.53-.22-1.09-.33-1.68-.33s-1.15.11-1.67.33c-.53.22-.99.52-1.37.91s-.69.85-.91,1.37c-.22.53-.33,1.09-.33,1.67s.11,1.15.33,1.68c.22.53.52.99.91,1.37.39.39.84.69,1.37.91.53.22,1.09.33,1.67.33s1.15-.11,1.68-.33c.53-.22.98-.52,1.37-.91s.69-.84.91-1.37c.22-.53.33-1.09.33-1.68s-.11-1.15-.33-1.67c-.22-.53-.52-.98-.91-1.37Z"/>
        <polygon class="st1" points="107.79 249 106.71 249 106.71 255.57 113.45 255.57 113.45 254.63 107.79 254.63 107.79 249"/>
        <rect class="st1" x="119.23" y="249" width="1.08" height="6.57"/>
        <path class="st1" d="M130.11,252.82h3.26v1.35c-.52.36-1.34.67-2.78.67-2.14,0-3.36-.78-3.36-2.56s1.22-2.55,3.36-2.55c1.65,0,2.38.35,2.98.85l.58-.73c-.82-.66-1.92-.98-3.54-.98-2.56,0-4.52,1.15-4.52,3.42s1.94,3.39,4.52,3.39c1.72,0,2.95-.4,3.76-1.1v-2.67h-4.26v.89Z"/>
        <path class="st1" d="M143.67,248.8l-4.55,6.77h1.12l.85-1.27h5.26l.87,1.27h1.17l-4.64-6.77h-.08ZM141.68,253.41l2.01-2.99,2.05,2.99h-4.06Z"/>
        <polygon class="st1" points="160.36 253.74 153.76 248.89 153.66 248.89 153.66 255.57 154.75 255.57 154.75 250.8 161.37 255.73 161.45 255.73 161.45 249 160.36 249 160.36 253.74"/>
        <path class="st1" d="M171.75,248.88c-2.51,0-4.62,1.15-4.62,3.42s2.1,3.39,4.62,3.39,4.58-1.1,4.58-3.41-2.09-3.4-4.58-3.4ZM171.73,254.84c-2.12,0-3.46-.85-3.46-2.56s1.35-2.55,3.46-2.55,3.46.91,3.46,2.57-1.35,2.54-3.46,2.54Z"/>
        <polygon class="st1" points="185.23 254.1 181.79 249 180.52 249 185.16 255.77 185.25 255.77 189.8 249 188.63 249 185.23 254.1"/>
        <path class="st1" d="M196.92,248.8l-4.55,6.77h1.12l.85-1.27h5.26l.87,1.27h1.17l-4.64-6.77h-.08ZM194.93,253.41l2.01-2.99,2.05,2.99h-4.06Z"/>
      </g>
      <g>
        <path class="st0" d="M229.53,156.21c-2.82.04-5.97.35-8.77.6-2.81.25-5.89.95-8.68,1.46-2.87.53-5.72,1.34-8.57,1.96-2.63.61-5.85,1.62-8.47,2.33-3.61,1.18-7.49,2.53-11,3.99-.69.26-2.03.82-2.69,1.14-7.05,3.19-14.07,6.87-20.05,11.83l.3.36c1.55-1.11,3.22-2.08,4.89-3.02,3.28-1.84,6.88-3.53,10.37-4.95,2.01-.88,4.66-1.76,6.7-2.55,3.11-1.01,6.44-2.1,9.61-2.89,2.98-.88,6.72-1.63,9.74-2.33,4.18-.77,8.49-1.47,12.74-1.84,1.65-.18,4.05-.52,5.67-.65,3.74-.35,7.63-.97,11.37-1.3,3.76-.43,7.66-.92,11.46-1.28,1.92-.24,3.85-.47,5.78-.82,0,0,.01-.47.01-.47-3.84-.67-7.73-1.16-11.62-1.43-2.8-.12-5.97-.14-8.78-.16Z"/>
        <path class="st0" d="M259.9,90.34c-2.75,0-5.63,3.29-5.63,5.9,0,1.47.94,2.28,2.01,2.28,2.48,0,5.7-3.35,5.7-6.03,0-1.47-.87-2.15-2.08-2.15Z"/>
        <path class="st0" d="M250.79,115.95c-.2,0-.4,0-.6.2-1.88,1.54-4.36,3.82-7.04,3.82-1.21,0-1.74-.6-1.74-1.74,0-3.08,5.56-8.11,10.39-12.94.13-.07.2-.27.2-.54,0-1.01-1.41-2.55-2.28-2.55-.27,0-.47.13-.67.34-2.81,2.35-5.77,5.03-8.15,7.73-2.01,1.79-11.34,9.91-15.24,9.91-.94,0-1.61-.34-1.61-1.54,0-2.55,2.82-5.03,5.1-6.97,1.88-1.54,3.49-2.88,4.49-3.89.54-.54.74-.94.74-1.34,0-1.74-1.01-3.08-1.94-3.08-.34,0-.6.34-2.08,1.54l-2.21,2.08c-.6-2.08-2.48-3.82-5.56-3.82-8.31,0-19.78,7.98-19.78,16.09,0,3.22,1.54,5.23,4.63,5.23,4.29,0,8.78-3.15,12.6-6.37-.4.94-.6,1.88-.6,2.82,0,2.01,1.74,3.55,4.83,3.55,3.47,0,8.06-2.81,11.89-5.71-.01.16-.02.32-.02.48,0,3.02,1.94,5.23,5.43,5.23,4.69,0,9.32-4.29,10.79-5.7.2-.2.27-.54.27-.87,0-.87-1.01-1.94-1.81-1.94ZM210.29,119.57c-1.47,0-2.21-.94-2.21-2.35,0-1.68,1.27-3.89,4.76-6.7,1.94-1.41,5.83-3.49,8.78-3.49,1.88,0,3.22.94,3.49,2.55-5.3,4.83-11.53,9.99-14.82,9.99Z"/>
      </g>
    </g>
    <g>
      <path class="st1" d="M564.4,935.5c1.55-.16,3.3-2.46,3.13-4.14-.1-.92-.64-1.29-1.44-1.21-1.72.18-3.3,2.42-3.13,4.05.1.92.74,1.36,1.45,1.29Z"/>
      <path class="st1" d="M549.5,951.83c.21-.02.33-.08.49-.18,1.03-.7,2.04-1.53,3.05-2.39l.05.5c.2,1.89,1.56,3.14,3.73,2.91,2.39-.25,5.61-3.01,7.98-5.36-.05.47-.06.92-.01,1.35.21,2.01,1.42,3.03,3.01,2.86,1.76-.18,4.01-2.03,6.02-4.02,0,.03,0,.06,0,.09.21,2.01,1.31,3.17,3.23,2.97,2.68-.28,5.28-2.54,7.46-4.8-.19.61-.25,1.21-.19,1.8.13,1.26,1.32,2.11,3.25,1.91,2.79-.29,6.43-3.61,8.8-6.07,0,.38,0,.76.04,1.12.21,2.01,1.58,3.82,3.68,3.6,2.95-.31,6.32-2.76,8.85-5,0,.13,0,.26.02.39.27,2.6,1.67,3.81,4.18,3.54,3.02-.32,6.21-2.55,8.28-5.44.9.54,1.99.77,3.2.64,1.42-.15,3.06-1.51,3.63-2.92.1-.22.16-.48.16-.53-.07-.63-.85-1.22-1.35-1.17-.21.02-.37.12-.48.3-.57.99-1.18,1.31-1.8,1.37-.71.07-1.32-.12-1.7-.46.58-1.37.9-2.76.76-4.06-.19-1.8-1.25-3.09-3.81-2.82-3.29.34-7.42,3.35-9.6,6.72-1.73,1.76-5.59,5.37-8.92,5.72-1.13.12-1.59-1.02-1.68-1.86-.09-.88.12-2.09.53-3.49,7.19-7.02,13.78-14.02,20.15-21.16,7.02-7.85,12.72-14.88,12.36-18.32-.07-.67-.37-1.15-.96-1.09-2.81.29-11.68,7.83-20.31,18.38-5.87,7.2-12.47,15.73-14.57,22.63-1.16,1.27-6.44,6.92-8.87,7.18-.59.06-1.03-.1-1.11-.86-.17-1.59,1.43-3.33,2.73-4.69,1.07-1.09,1.99-2.03,2.55-2.72.3-.37.4-.63.37-.89-.11-1.09-.83-1.86-1.42-1.8-.21.02-.35.25-1.2,1.1l-1.25,1.44c-.51-1.26-1.8-2.23-3.73-2.03-3.7.39-8.14,3.41-10.19,6.95-1.86,2-4.69,4.9-6,5.03-.75.08-1.27-.42-1.35-1.13-.17-1.68.82-3.47,2.07-5.34,2.3-2.7,5.12-6.12,7.81-9.58l12.4-1.3c.92-.1,2.11-1.32,2.04-1.95-.03-.34-.26-.48-.77-.51-3.39-.03-7.07.02-11.05.39,2.23-2.94,4.19-5.69,5.31-7.54.43-.76.62-1.38.58-1.75-.04-.38-.31-.56-.65-.53-.42.04-.98.36-1.56.92-1.88,1.85-5.15,5.41-8.61,9.58-.95.18-2.61.57-3.85.87-1.65.43-2.83,1.65-2.76,2.32.03.25.34.39.88.33l3.23-.34c-2.01,2.8-4.68,6.48-6.34,9.94-.93.99-6.05,6.86-8.78,7.14-.75.08-1.13-.26-1.2-.98-.2-1.93,2.87-5.34,5.57-8.67.15-.19.18-.27.17-.44-.07-.63-1.05-1.5-1.59-1.44-.08,0-.2.06-.4.25-1.42,1.42-2.62,2.86-3.82,4.34-.53.65-4.24,4.8-7.73,7.03-.36.25-.45.51-.42.81.06.59.68,1.24,1.39,1.17ZM614.5,937.55c1.78-1.63,3.63-2.58,5.01-2.73.54-.06.98.02,1.33.16-.97.44-1.56,1.65-1.42,3.07.08.75.28,1.45.59,2.01-.45.56-.99,1.08-1.57,1.6-1.87,1.55-3.36,2.3-4.49,2.42-1.09.11-2-.47-2.12-1.6-.15-1.47,1.07-3.5,2.66-4.94ZM613.96,918.67c8.06-9.61,13.06-14.41,14.33-15.26.36-.25.6-.36.81-.38.13-.01.21.02.23.15.01.13-.1.31-.27.62-1.33,2.3-4.7,6.46-9.73,12.24-5.33,6.11-10.73,12.05-16.36,17.72,2.51-4.37,6.22-9.41,11-15.08ZM584.81,938.74c1.17-.12,2.07.38,2.34,1.36-2.99,3.36-6.55,6.99-8.61,7.21-.92.1-1.44-.44-1.54-1.32-.11-1.05.54-2.51,2.54-4.5,1.12-1.01,3.42-2.56,5.26-2.75Z"/>
      <path class="st1" d="M644.32,943.37c2.09-.22,4.78-2.07,7.56-4.64l.08.8c.14,1.38,1.09,3.1,3.22,2.88,1.99-.21,4.77-2.37,7.06-4.5,0,.15,0,.31,0,.46.2,1.89,1.56,3.14,3.73,2.91,3.98-.42,10.28-7.81,11.08-8.65,0,0,0,0,0,0,1.07-1.13,2.44-2.92,3.2-4.14.08,1.14.22,2.09.1,3.42-.28,3.38-2.36,5.37-3.87,5.53-.67.07-1.09-.31-1.36-.83-.06-.16-.19-.19-.32-.18-.59.06-1.57,1.18-1.51,1.77.12,1.17,1.15,2.46,3.28,2.24,3.08-.32,6.84-2.81,9.9-5.36,0,.02,0,.03,0,.05.26,2.51,1.95,4.07,4.38,3.82,3.35-.35,6.9-2.94,9.5-5.28,0,.1,0,.2.02.3.27,2.6,1.67,3.81,4.18,3.54,3.02-.32,6.21-2.55,8.28-5.44.9.54,1.99.77,3.2.64,1.42-.15,3.06-1.51,3.63-2.92.1-.22.16-.48.16-.52-.07-.63-.85-1.22-1.35-1.17-.21.02-.37.12-.48.3-.57.99-1.18,1.31-1.8,1.37-.71.07-1.33-.11-1.7-.46.58-1.37.9-2.76.76-4.06-.19-1.8-1.25-3.09-3.81-2.82-3.28.34-7.41,3.35-9.59,6.71-2,2.01-6.76,6.48-10.08,6.82-.84.09-1.94-.35-2.07-1.6-.3-2.89,4.07-7.24,5.7-7.41,1.13-.12.36,2.63,1.78,2.48,1.34-.14,2.52-1.83,2.38-3.17-.15-1.42-1.01-2.35-2.52-2.19-3.6.38-8.11,3.95-9.86,7.64-1.39,1.4-2.99,2.83-5.13,4.18.61-1.04.9-2.3.97-3.7.03-3.35-.64-5.35.7-7.1.03-.09.1-.22.08-.43-.05-.5-.84-1.18-1.64-1.1-.67.07-1.16.63-2.5,2.46-1.34,1.75-2.6,3.49-4.2,5.18,0,0-.01.01-.02.02-.85.91-6.05,6.88-8.8,7.17-.75.08-1.13-.26-1.2-.98-.2-1.93,2.87-5.34,5.57-8.67.15-.18.18-.27.17-.44-.07-.63-1.05-1.5-1.59-1.44-.08,0-.21.06-.4.25-1.58,1.62-3.24,3.48-4.55,5.31-1.04,1.09-5.93,6.16-8.28,6.4-.8.08-1.24-.55-1.33-1.38-.06-.55,0-1.27.12-2.05,3.73-3.99,7.41-8.57,10.5-12.15,5.98-6.85,20.61-24.43,20.31-27.36-.07-.67-.49-1.01-1.2-.93-3.14.33-15.16,11.37-23.38,22.69-2.59,3.57-5.42,8.15-7.3,12.45-.6-.49-1.58-.94-2.67-.82-5.03.53-11.09,6.11-10.58,11.06.17,1.63,1.15,3.31,3.41,3.07ZM705.94,927.99c1.78-1.63,3.63-2.58,5.01-2.73.55-.06.98.02,1.33.16-.97.44-1.56,1.65-1.42,3.07.08.75.28,1.45.59,2.01-.45.56-.99,1.08-1.57,1.6-1.87,1.55-3.36,2.3-4.49,2.42-1.09.11-2-.47-2.12-1.6-.15-1.47,1.07-3.5,2.66-4.94ZM664,918.87c5.57-7.44,12.47-15.24,18.89-20.61-5.75,8.22-13.93,17.89-18.04,22.72-1.84,2.23-4.71,5.62-7.73,9.07,1.88-3.92,4.61-8.15,6.88-11.18ZM646.4,934.04c1.47-1.38,3.09-2.06,4.39-2.19,1.22-.13,1.92.14,2.31.99-.26.7-.52,1.54-.7,2.23-2.8,2.75-5.34,4.84-6.85,4.99-.92.1-1.49-.52-1.59-1.4-.12-1.17.59-2.86,2.44-4.62Z"/>
      <path class="st1" d="M675.25,918.75c-1.72.18-3.3,2.42-3.13,4.05.1.92.73,1.36,1.41,1.29,1.55-.16,3.34-2.47,3.17-4.14-.1-.92-.68-1.28-1.44-1.2Z"/>
      <path class="st1" d="M795.74,972.97c-.13,0-.25,0-.38.13-.84.76-2.53,2.32-4.25,2.32-.59,0-1.01-.21-1.01-.97,0-1.6,1.77-3.16,3.2-4.38,1.18-.97,2.19-1.81,2.82-2.44.34-.34.46-.59.46-.84,0-1.1-.63-1.94-1.14-1.94-.29,0-.46.21-1.39.97-.55.51-1.22,1.1-1.39,1.31-.38-1.31-1.56-2.4-3.5-2.4-3.64,0-8.25,2.44-10.7,5.65-2.25,1.84-5.16,4.05-8.29,5.94l-2.02,1.18c.13-.46.21-.88.21-1.35,0-1.22-.59-2.15-2.02-2.57,4.25-1.1,8.47-3.62,8.47-6.44,0-1.81-1.43-2.86-3.75-2.86-3.66,0-7.08,2.53-9.73,4.8,0,0-.01.01-.02.02-4.41,3.78-7.02,6.21-9.67,6.21-.51,0-.8-.46-.8-.97,0-1.31,1.85-3.2,3.54-4.59,1.14-.97,3.54-2.44,3.54-3.2,0-.63-.59-1.73-1.22-1.73-1.56,0-6.28,2.23-10.78,5.35,1.22-1.56,2.19-2.65,2.7-3.37.3-.42.42-.63.42-.97,0-.76-.84-1.98-1.56-1.98-.38,0-.67.13-.93.42-1.85,2.23-3.66,4.04-4.55,4.8-.01,0-.02.02-.03.02-.93.84-7.16,6.34-9.7,6.34-.59,0-1.01-.21-1.01-.97,0-1.6,1.77-3.16,3.2-4.38,1.18-.97,2.19-1.81,2.82-2.44.34-.34.46-.59.46-.84,0-1.1-.63-1.94-1.22-1.94-.21,0-.38.21-1.31.97l-1.39,1.31c-.38-1.31-1.56-2.4-3.5-2.4-3.71,0-8.41,2.53-10.83,5.82-1.65,1.38-4.37,3.42-8.92,5.77-.72.42-1.43.72-2.15,1.05l3.12-3.54c3.2-3.66,5.01-5.56,5.94-6.44.38-.38.42-.67.42-.84,0-.8-.72-1.68-1.22-1.68-.17,0-.51.08-.97.46l-1.98,1.73c-.38-1.31-1.56-2.32-3.5-2.32-3.69,0-8.37,2.5-10.8,5.77-2.28,1.91-6.18,4.93-8.07,4.93-.59,0-1.01-.21-1.01-.97,0-1.6,1.77-3.16,3.2-4.38,1.18-.97,2.19-1.81,2.82-2.44.34-.34.46-.59.46-.84,0-1.1-.63-1.94-1.22-1.94-.21,0-.38.21-1.31.97l-1.39,1.31c-.38-1.31-1.56-2.4-3.5-2.4-3.5,0-7.87,2.25-10.39,5.26-.77.47-1.72.85-2.83.85-1.22,0-1.9-.67-2.23-1.77l1.56-1.9c.17-.17.25-.46.25-.72,0-.84-.72-1.73-1.35-1.73-.13,0-.34.08-.46.21-3.87,4.68-9.48,9.9-11.41,9.9-.51,0-.97-.25-.97-.88,0-1.73,2.32-4.46,5.6-7.16.21-.13.25-.38.25-.63,0-.8-.63-1.77-1.22-1.77-.17,0-.38.13-.84.55-1.6,1.33-3.03,2.69-4.19,4.04-.04.03-.07.05-.11.09-.84.76-7.16,6.36-9.73,6.36-.59,0-1.01-.21-1.01-.97,0-1.6,1.77-3.16,3.2-4.38,1.18-.97,2.19-1.81,2.82-2.44.34-.34.46-.59.46-.84,0-1.1-.63-1.94-1.22-1.94-.21,0-.38.21-1.31.97l-1.39,1.31c-.38-1.31-1.56-2.4-3.5-2.4-3.64,0-8.25,2.44-10.7,5.65-2.58,2.1-5.84,4.46-7.54,4.46-.59,0-.97-.38-.97-.97,0-1.6,3.41-4.97,5.48-6.82.13-.13.21-.34.21-.51,0-.51-.38-1.18-.93-1.18-.38,0-1.14.25-1.98.25-.51,0-1.43-.17-1.43-.55,0-.42.67-.84.67-1.31,0-.51-.72-.84-1.22-.84-.29,0-.46.08-.59.21-3.12,3.07-5.31,5.18-6.19,5.94,0,0-.01.01-.02.02-1.21,1.04-6.39,5.88-8.19,5.88-.76,0-1.22-.55-1.22-1.26,0-1.68,1.18-3.37,2.61-5.1,2.57-2.44,5.73-5.56,8.76-8.72h12.47c.93,0,2.23-1.1,2.23-1.73,0-.34-.21-.51-.72-.59-3.37-.38-7.03-.72-10.95-.76,2.49-2.7,4.68-5.22,5.98-6.95.51-.72.76-1.31.76-1.69s-.25-.59-.59-.59c-.42,0-1.01.25-1.64.76-2.02,1.64-5.6,4.8-9.35,8.47-2.57.04-5.22.25-7.92.63-1.64.25-2.91,1.35-2.91,2.02,0,.25.25.42.84.42h6.95c-2.29,2.58-5.33,5.96-7.34,9.23-4.39,3.76-6.99,6.19-9.3,6.19-.84,0-1.47-.76-1.68-2.06l-.13-.46c4-2.7,7.62-4.97,9.86-6.11.21-.13.34-.34.34-.51,0-.67-.84-1.56-1.47-1.56-.13,0-.34,0-.59.13-1.43.63-4.97,2.78-8.55,5.14-.59-3.07-1.26-5.22-2.4-5.22-.46,0-.97.29-1.52.8-.76.76-2.95,2.86-3.83,3.62,0,0,0,0-.01.01-.94.8-7.59,6.43-12.66,6.43-1.18,0-1.73-.46-1.73-1.77,0-.13,0-.29.04-.51,5.22-.08,10.32-3.07,10.32-6.57,0-1.43-.93-2.15-2.19-2.15-4.63,0-11.75,5.31-11.75,10.19,0,1.81,1.64,3.41,3.88,3.41,6.78,0,14.62-6.7,15.5-7.46,0,0,0,0,.01-.01.43-.35,1.51-1.39,2.51-2.31.51.8.8,1.98,1.05,3.41-2.06,1.35-4.09,2.78-5.56,3.87-.17.13-.25.38-.25.67,0,.8.59,1.81,1.31,1.81.17,0,.42-.17.67-.38l4.25-3.07.13.51c.34,1.6,1.31,2.82,3.03,2.82,2.84,0,6-2.15,8.75-4.4-.1.47-.16.93-.16,1.37,0,2.02,1.1,3.16,2.7,3.16,3.33,0,9.01-5.69,11.08-7.46,0,0,0,0,0,0,.89-.77,3.11-2.86,3.61-3.4.21.51.97.97,1.9.97-.72.76-4.38,4-4.38,7.16,0,1.14.51,2.57,2.61,2.57,2.37,0,5.12-1.59,7.64-3.46,0,.11-.02.23-.02.34,0,2.02.97,3.29,2.91,3.29,2.7,0,5.52-1.98,7.92-4-.25.59-.38,1.18-.38,1.77,0,1.26,1.1,2.23,3.03,2.23,2.25,0,5.26-1.89,7.71-3.77-.08.41-.13.81-.13,1.2,0,1.56.97,2.53,2.44,2.53,2.65,0,6.57-2.02,11.08-6.53.59,1.43,1.94,2.27,3.83,2.27.59,0,1.18-.13,1.76-.32-.1.44-.16.89-.16,1.33,0,2.02.97,3.29,2.91,3.29,2.7,0,5.52-1.98,7.92-4-.25.59-.38,1.18-.38,1.77,0,1.26,1.1,2.23,3.03,2.23,2.14,0,4.96-1.7,7.34-3.49,0,.07,0,.14,0,.2,0,2.02.97,3.29,2.91,3.29,2.44,0,5.1-1.64,7.33-3.45-1.35,1.6-2.82,3.16-4.38,4.68-2.78,1.18-5.39,2.19-7.29,3.12-8.13,4-18.36,9.77-18.36,14.49,0,2.02,1.47,2.65,2.65,2.65,5.1,0,15.12-8.72,24.18-18.32,2.61-1.1,5.26-2.19,7.12-3.2,2.54-1.38,4.46-2.6,5.95-3.64,0,.13-.02.26-.02.39,0,2.02.97,3.29,2.91,3.29,2.7,0,5.52-1.98,7.92-4-.25.59-.38,1.18-.38,1.77,0,1.26,1.1,2.23,3.03,2.23,3,0,7.34-3.35,9.92-5.58l-1.96,3.01c-.21.3-.59.76-.59,1.18s1.05,1.14,1.56,1.14c.34,0,.72-.38,1.18-.88,2.82-3.12,5.14-5.05,9.35-7.37-1.94,1.81-3.33,3.62-3.33,5.56,0,1.68,1.31,2.82,3.03,2.82,3.83,0,8.93-4.55,12.17-7.33,0,0,0,0,.01-.01,1.77-1.52,4.33-3.78,6.89-3.78.93,0,1.35.42,1.35,1.14,0,1.85-5.35,4.25-8.93,5.56-.46.13-.72.63-.72,1.01,0,.46.17.84.59.84.25,0,1.14-.25,1.64-.25,1.39,0,2.19.63,2.19,1.94,0,.59-.3,1.26-.88,2.19l-3.88,1.94c-8,4-19.38,10.61-19.38,15.71,0,2.02,1.47,2.65,2.61,2.65,5.56,0,12.72-7.62,18.11-13.35,1.9-1.98,3.41-3.92,4.46-5.73,1.43-.76,2.91-1.68,4.46-2.57,1.91-1.15,3.78-2.4,5.5-3.65-.02.18-.03.35-.03.53,0,2.02.97,3.29,2.91,3.29,2.7,0,5.52-1.98,7.92-4-.25.59-.38,1.18-.38,1.77,0,1.26,1.1,2.23,3.03,2.23,3.07,0,5.73-2.7,6.49-3.41.13-.13.21-.25.21-.46,0-.55-.67-1.26-1.18-1.26ZM587.43,966.86c.59,0,.8.38.8.76,0,1.35-4.09,3.75-7.03,3.75,1.56-2.32,4.84-4.51,6.23-4.51ZM641.71,975.03c-.93,0-1.39-.59-1.39-1.47,0-1.05.8-2.44,2.99-4.21,1.22-.88,3.66-2.19,5.52-2.19,1.18,0,2.02.59,2.19,1.6-3.33,3.03-7.25,6.28-9.31,6.28ZM681.73,975.03c-.93,0-1.39-.59-1.39-1.47,0-1.05.8-2.44,2.99-4.21,1.22-.88,3.66-2.19,5.52-2.19,1.18,0,2.02.59,2.19,1.6-3.33,3.03-7.25,6.28-9.31,6.28ZM681.77,996.6c-.34,0-.59-.04-.59-.51,0-1.73,8.05-7.08,14.83-10.82.97-.51,2.11-1.1,3.5-1.69-7.62,7.29-15.29,13.02-17.73,13.02ZM702.24,975.07c-.88,0-1.14-.42-1.14-.97,0-2.7,5.98-6.87,8.85-6.87,1.22,0,1.73.76,1.9,1.52-3.54,3.16-7.25,6.32-9.6,6.32ZM722.62,975.03c-.93,0-1.39-.59-1.39-1.47,0-1.05.8-2.44,2.99-4.21,1.22-.88,3.66-2.19,5.52-2.19,1.18,0,2.02.59,2.19,1.6-3.33,3.03-7.25,6.28-9.31,6.28ZM759.01,985.86c-4,4.13-10.78,10.74-13.69,10.74-.3,0-.55-.04-.55-.51,0-2.36,8.42-8.26,14.87-11.71l1.69-.93-2.32,2.4ZM781.46,975.03c-.93,0-1.39-.59-1.39-1.47,0-1.05.8-2.44,2.99-4.21,1.22-.88,3.66-2.19,5.52-2.19,1.18,0,2.02.59,2.19,1.6-3.33,3.03-7.25,6.28-9.31,6.28Z"/>
      <path class="st1" d="M592.61,990.46c-19.26,2.27-38.47,5.28-57.3,9.99l.07.27c9.48-1.96,19.04-3.49,28.63-4.78,11.98-1.64,24-2.96,36.06-3.78,14.41-.88,29.02-1.84,43.42-2.81,2.42-.17,4.84-.34,7.26-.58,0,0,0-.28,0-.28-19.39-1.49-38.87-.45-58.13,1.97Z"/>
    </g>
  </g>
</svg>