<?xml version="1.0" encoding="UTF-8"?>
<svg id="Ebene_1" xmlns="http://www.w3.org/2000/svg" version="1.1" viewBox="0 0 961 656">
  <!-- Generator: Adobe Illustrator 29.1.0, SVG Export Plug-In . SVG Version: 2.1.0 Build 142)  -->
  <defs>
    <style>
      .st0 {
        fill: #c32f33;
      }

      .st1 {
        fill: #f3df6e;
      }
    </style>
  </defs>
  <g>
    <path class="st0" d="M169.63,455.22c14.01,0,27.67-1.37,41.68-4.1,7.86-1.37,16.4-4.1,24.6-4.1,4.44,0,7.18,2.73,7.52,7.18h3.42s3.07-97.72,3.07-97.72h-3.42c-7.86,31.09-34.85,94.3-74.48,94.3-51.93,0-58.43-75.51-58.43-112.75,0-31.43,2.39-115.14,49.54-115.14,27.67,0,47.49,24.6,60.82,46.12,8.54,14.01,14.35,27.68,19.47,43.05h3.42s-5.47-90.88-5.47-90.88h-3.42c-1.03,4.78-3.76,6.49-8.54,6.49-6.15,0-12.3-1.71-18.45-3.07-15.03-3.42-30.41-6.15-46.13-6.15-66.62,0-123,49.88-123,117.87,0,70.72,59.79,118.9,127.78,118.9Z"/>
    <path class="st0" d="M400.94,447.36c-25.28-1.71-31.77-10.25-31.77-35.53v-136.67c0-10.59-1.03-30.07,6.15-39.29,6.15-7.86,16.4-8.88,25.63-9.57v-3.42h-130.86v3.42c9.22.68,19.82,1.37,25.63,9.57,5.47,7.52,6.15,17.08,6.15,26.31v133.59c0,11.62,1.02,32.12-6.15,42.02-6.15,8.2-16.06,8.88-25.63,9.57v3.42h130.86v-3.42Z"/>
    <path class="st0" d="M492.15,399.53h93.96s20.84,51.25,20.84,51.25h60.13s-105.23-241.9-105.23-241.9h-44.07s-104.55,241.9-104.55,241.9h58.77s20.16-51.25,20.16-51.25ZM538.27,279.26l29.73,75.17h-59.11s29.38-75.17,29.38-75.17Z"/>
    <path class="st0" d="M923.33,337c0-68.33-57.74-118.56-124.37-118.56-66.28,0-124.02,50.57-124.02,118.56,0,67.99,57.74,118.22,124.02,118.22s124.37-50.22,124.37-118.22ZM760.69,423.78c-9.91-23.58-11.62-61.5-11.62-86.78,0-25.63,1.71-63.21,11.62-87.12,6.83-16.4,20.16-26.99,38.27-26.99s31.78,10.25,38.61,26.99c9.91,23.58,11.62,61.84,11.62,87.12,0,25.28-1.71,63.21-11.62,86.78-6.83,16.74-20.16,26.99-38.61,26.99s-31.43-10.59-38.27-26.99Z"/>
    <polygon class="st0" points="153.02 572.42 152.64 572.42 95.63 479.24 55.48 479.24 55.48 613.33 85.03 613.33 85.03 517.88 85.41 517.88 143.93 613.33 182.57 613.33 182.57 479.24 153.02 479.24 153.02 572.42"/>
    <path class="st0" d="M253.97,479.24l-57.96,134.09h32.58s11.17-28.41,11.17-28.41h52.08s11.55,28.41,11.55,28.41h33.33s-58.34-134.09-58.34-134.09h-24.43ZM249.04,559.92l16.29-41.67,16.48,41.67h-32.77Z"/>
    <path class="st0" d="M450.94,486.25c-4.92.76-10.23.76-15.34.76h-66.1c-5.49,0-11.17.19-16.48-.57-4.54-.57-6.63-1.89-9.85-5.11l-5.68,44.13h1.89c5.11-11.36,13.45-21.02,23.67-28.03,7.39-5.11,11.17-6.63,20.08-8.52v97.91c0,17.24-1.14,23.48-20.08,24.62v1.89h77.46v-1.89c-5.49-.38-12.5-.57-16.29-5.3-4.36-5.3-3.79-17.23-3.79-23.86v-93.37c8.52,1.7,11.93,3.03,19.13,7.76,4.55,3.03,8.52,6.63,12.31,10.42,6.25,6.44,8.33,10.04,11.74,18.37h1.89s-5.11-44.13-5.11-44.13c-3.22,2.84-5.11,4.36-9.47,4.92Z"/>
    <path class="st0" d="M524.24,479.24l-57.96,134.09h32.58s11.17-28.41,11.17-28.41h52.08s11.55,28.41,11.55,28.41h33.33s-58.34-134.09-58.34-134.09h-24.43ZM519.31,559.92l16.29-41.67,16.48,41.67h-32.77Z"/>
    <polygon class="st0" points="651.13 479.24 621.59 479.24 621.59 613.33 705.87 613.33 705.87 586.06 651.13 586.06 651.13 479.24"/>
    <path class="st0" d="M781.63,611.06c-10.98,0-11.17-7.58-11.17-16.67v-44.7c9.09.38,15.34,1.7,22.16,7.77,6.44,5.49,10.04,12.5,11.93,20.64h1.89v-58.33h-1.89c-.76,5.3-1.52,8.52-4.55,13.07-7.01,10.04-17.99,13.64-29.55,14.77v-58.33s5.3,0,5.3,0c18.75,0,32.39,6.63,44.51,20.64,6.25,7.39,8.9,11.74,12.5,20.64h1.89s-7.58-43.56-7.58-43.56h-111.55v1.89c5.11.38,10.98.76,14.2,5.3,3.03,4.17,3.41,9.47,3.41,14.58v72.16c0,6.82.76,19.51-3.41,25.19-3.41,4.54-8.9,4.92-14.2,5.3v1.89h118.94s8.71-53.79,8.71-53.79h-1.89c-8.71,24.43-31.63,51.51-59.66,51.51Z"/>
    <rect class="st0" x="873.67" y="479.24" width="28.41" height="89.77"/>
    <path class="st0" d="M900.28,584.64c-1.58-1.58-3.44-2.81-5.59-3.69-2.15-.88-4.42-1.33-6.82-1.33s-4.67.44-6.82,1.33c-2.15.88-4.01,2.12-5.59,3.69s-2.81,3.44-3.69,5.59c-.88,2.15-1.33,4.42-1.33,6.82s.44,4.67,1.33,6.82c.88,2.15,2.11,4.01,3.69,5.59,1.58,1.58,3.44,2.81,5.59,3.69,2.14.88,4.42,1.33,6.82,1.33s4.67-.44,6.82-1.33c2.14-.88,4.01-2.11,5.59-3.69,1.58-1.58,2.81-3.44,3.69-5.59.88-2.15,1.33-4.42,1.33-6.82s-.44-4.67-1.33-6.82c-.89-2.15-2.12-4.01-3.69-5.59Z"/>
  </g>
  <g>
    <path class="st1" d="M559,302.03c-11.46.18-24.28,1.41-35.7,2.44-11.43,1.01-23.98,3.88-35.32,5.93-11.69,2.18-23.3,5.45-34.89,7.99-10.69,2.47-23.82,6.6-34.47,9.48-14.7,4.82-30.5,10.28-44.78,16.23-2.8,1.05-8.25,3.35-10.96,4.64-28.71,12.97-57.26,27.98-81.62,48.16l1.22,1.47c6.32-4.5,13.11-8.47,19.91-12.27,13.35-7.5,28.01-14.36,42.21-20.16,8.17-3.58,18.95-7.17,27.29-10.37,12.64-4.12,26.23-8.54,39.1-11.76,12.12-3.6,27.36-6.65,39.65-9.47,17-3.14,34.58-5.99,51.84-7.51,6.7-.75,16.5-2.12,23.09-2.63,15.22-1.43,31.06-3.96,46.27-5.28,15.32-1.74,31.2-3.75,46.63-5.22,7.82-.97,15.66-1.91,23.54-3.32,0,0,.05-1.91.05-1.91-15.65-2.73-31.47-4.7-47.32-5.83-11.4-.48-24.3-.59-35.75-.64Z"/>
    <path class="st1" d="M645.53,138.13c-.82,0-1.64,0-2.46.82-7.64,6.28-17.74,15.56-28.65,15.56-4.91,0-7.1-2.46-7.1-7.1,0-12.55,22.65-33.02,42.3-52.67.54-.27.82-1.09.82-2.18,0-4.09-5.73-10.37-9.28-10.37-1.09,0-1.91.55-2.73,1.37-11.43,9.55-23.49,20.48-33.19,31.45-8.18,7.29-46.17,40.33-62.05,40.33-3.82,0-6.55-1.36-6.55-6.28,0-10.37,11.46-20.47,20.74-28.38,7.64-6.28,14.19-11.74,18.29-15.83,2.18-2.18,3-3.82,3-5.46,0-7.1-4.09-12.55-7.91-12.55-1.36,0-2.46,1.37-8.46,6.28l-9.01,8.46c-2.46-8.46-10.1-15.56-22.65-15.56-33.84,0-80.51,32.48-80.51,65.5,0,13.1,6.28,21.29,18.83,21.29,17.47,0,35.75-12.83,51.31-25.93-1.64,3.82-2.46,7.64-2.46,11.46,0,8.19,7.1,14.46,19.65,14.46,14.12,0,32.81-11.46,48.39-23.26-.06.66-.09,1.32-.09,1.97,0,12.28,7.91,21.29,22.11,21.29,19.1,0,37.93-17.47,43.94-23.2.82-.82,1.09-2.18,1.09-3.55,0-3.55-4.09-7.91-7.37-7.91ZM480.7,152.87c-6,0-9.01-3.82-9.01-9.55,0-6.82,5.19-15.83,19.38-27.29,7.91-5.73,23.74-14.19,35.75-14.19,7.64,0,13.1,3.82,14.19,10.37-21.56,19.65-46.94,40.66-60.31,40.66Z"/>
    <path class="st1" d="M682.65,33.88c-11.19,0-22.92,13.37-22.92,24.02,0,6,3.82,9.28,8.19,9.28,10.1,0,23.2-13.65,23.2-24.56,0-6-3.55-8.73-8.46-8.73Z"/>
  </g>
</svg>