<?xml version="1.0" encoding="UTF-8"?>
<svg id="Ebene_1" xmlns="http://www.w3.org/2000/svg" version="1.1" viewBox="0 0 500 500">
  <!-- Generator: Adobe Illustrator 29.1.0, SVG Export Plug-In . SVG Version: 2.1.0 Build 142)  -->
  <defs>
    <style>
      .st0 {
        fill: #f3df6e;
      }
    </style>
  </defs>
  <path class="st0" d="M367.94,278.69c-.39.11-.66.3-.87.68-1.48,2.24-6.19,8.08-11.9,9.74-2.76.8-4.35.09-5.23-2.96-.09-.29-.2-.69-.24-1.21,12.44-3.81,22.03-14.16,19.66-22.33-.97-3.35-3.62-4.39-6.57-3.54-7.77,2.25-16.67,11.75-19.86,21.15-2.93,4.34-7.89,10.88-16.83,19.34-1.39,1.47-2.86,2.64-4.3,3.91l4.89-10.37c5-10.72,7.95-16.38,9.51-19.07.63-1.14.53-1.86.41-2.25-.54-1.87-2.81-3.45-3.99-3.11-.39.11-1.12.54-1.95,1.74l-3.46,5.37c-1.77-2.79-5.21-4.36-9.73-3.05-8.6,2.49-17.8,11.46-21.28,20.71-6.08,9.3-10.15,15.16-15.54,16.73-1.18.34-2.18-.54-2.53-1.72-.88-3.05,2.16-8.73,5.16-13.12,2-3.03,6.61-8.1,6.1-9.87-.43-1.48-2.54-3.64-4.02-3.21-3.64,1.05-13.15,9.46-21.57,19.79,1.8-4.47,3.32-7.68,4.02-9.69.4-1.18.56-1.76.33-2.55-.51-1.77-3.3-4.05-4.98-3.57-.89.26-1.49.75-1.88,1.61-2.82,6.47-5.83,11.92-7.38,14.29-4.66,7.11-12.44,18.53-16.67,19.76-1.28.37-2.32-.29-2.64-1.37-1.03-3.54,2.41-10.08,6.02-19.34.18-.48.08-1.2-.09-1.79-.57-1.97-2.85-3.22-4.33-2.8-.69.2-.9.58-1.11.96-5.33,12.53-15.06,29-19.59,30.31-1.18.34-2.43.06-2.86-1.41-1.17-4.03,2.39-12,8.19-20.71.4-.44.39-.86.22-1.45-.54-1.87-2.67-3.7-4.05-3.31-.39.11-.63.4-.8.55-3.21,4.74-5.85,9.26-7.77,13.46-.08.11-.17.23-.27.39-2.07,3.16-4.51,5.79-7.85,6.75-.89.26-1.6.36-2.38.26.58-3.15.63-5.94-.11-8.5-1.23-4.23-4.33-6.85-10.33-5.11-7.74,2.24-16.35,11.25-20.1,20.26-8.14,12.1-15.33,19.86-28.39,23.64-9.45,2.74-17.14,3.79-23.69,4.73,11.63-14.35,20.51-37.08,27.77-55.07,8.77-21.63,16.03-38.55,23.05-50.4,6.45-10.5,15.25-19.13,21.25-20.87,3.25-.94,5.22-.02,5.93,2.44,1.99,6.89-9.8,25.45-12.56,29.55-4.59,6.98-12.17,16.53-18.66,23.96-.64.72-.77,1.4-.6,1.99.43,1.48,3.29,2.14,5.84,1.4,1.18-.34,2.18-.95,3.09-1.85,5.66-6.23,12.8-15.44,18.37-24.2,4.42-6.83,13.86-23.96,11.01-33.79-1.34-4.62-6.11-7.83-13.58-5.66-7.58,2.19-17.23,9.36-26.3,22.97-8.17,12.29-15.81,29-24.18,49.45-7.73,18.98-17.28,47.13-27.7,61.23-1.04.09-4.37.73-6.34,1.3-6,1.74-10.35,5.13-9.38,8.48.37,1.28,2.18,3.1,5.62,2.1,3.64-1.05,7.02-2.99,10.28-5.75,10.38-1.73,20.13-1.56,32.33-5.1,9.8-2.84,17.84-10.11,25.14-19.43.07.33.14.67.24.99,1.77,6.1,5.63,8.39,11.53,6.68,7.38-2.14,14.42-9.51,18.21-17.75,1.35.25,2.91.12,4.78-.43,1.66-.48,3.14-1.3,4.49-2.35-.1,1.89.05,3.66.52,5.27,1.05,3.64,3.97,5.25,7.42,4.25,5.41-1.57,10.92-7.96,14.85-14.64-.11,1.84.1,3.28.41,4.36,1.08,3.74,4.11,4.99,6.97,4.17,6.2-1.8,13.57-11.54,19.76-20.7l-2.76,9.06c-.29.83-.86,2.17-.58,3.15.29.98,3.23,1.94,4.41,1.6.79-.23,1.42-1.37,2.16-2.86,4.48-9.19,8.58-15.28,16.86-23.54-3.3,5.54-5.32,10.71-4.01,15.24,1.14,3.94,4.96,5.71,8.99,4.54,5.32-1.54,10.59-7.13,15.19-13.23.06.26.12.52.19.78,1.37,4.72,4.49,7.02,9.01,5.71,5.71-1.65,10.79-7.29,14.78-13.03-2.07,4.65-4.46,9.29-7.07,13.88-5.7,4.64-11.11,8.76-14.91,12.21-16.28,14.85-36.29,35.25-33.1,46.27,1.37,4.72,5.24,5.2,7.99,4.4,11.9-3.45,29.42-30.6,44.08-59.16,5.36-4.33,10.82-8.68,14.46-12.29,5.03-4.98,8.74-9.16,11.52-12.61.05.23.1.47.17.69,1.23,4.23,6.15,6.86,12.15,5.12,9.35-2.71,14.11-9.1,16.99-13.88.21-.38.32-.73.18-1.22-.37-1.28-2.33-2.52-3.61-2.15ZM187.79,332.68c-3.81,4.52-7.05,6.95-9.71,7.72-2.56.74-4.98-.26-5.75-2.92-1-3.44,1.06-8.84,4.24-12.96,3.56-4.66,7.57-7.74,10.82-8.68,1.28-.37,2.35-.36,3.25-.19-2.13,1.47-3.04,4.61-2.07,7.96.51,1.77,1.26,3.26,2.32,4.34-.67,1.37-1.9,3-3.11,4.74ZM272.54,366.46c-.79.23-1.41.3-1.72-.78-1.17-4.03,14.01-21.97,27.31-35.32,1.92-1.84,4.18-3.98,7.03-6.3-12.88,22.18-26.91,40.75-32.62,42.4ZM305.8,302.34c-2.07.6-2.94-.21-3.31-1.49-1.82-6.3,9.33-20.08,16.02-22.02,2.85-.83,4.55.6,5.45,2.26-6.13,9.77-12.65,19.66-18.16,21.25ZM361.93,265.29c1.38-.4,2.12.34,2.38,1.23.91,3.15-7.01,11.52-13.9,13.51,2.07-6.47,8.27-13.8,11.51-14.74Z"/>
  <path class="st0" d="M205.35,224.45c3.52-1.02,8.51-11.49,8.02-13.15-.32-1.11-.92-1.44-1.73-1.81,8.79-24,24.08-41.17,35.46-44.46,3.33-.96,4.5.3,5.17,2.61,5.17,17.86-34.12,85.09-28.46,104.61,1.31,4.53,5.25,6,8.95,4.93,10.45-3.03,23.4-27.23,40.56-61.78,13.46-27.26,25.56-44.7,32.59-50.55,1.61-1.37,1.67-4.29,1.05-6.42-.43-1.48-1.12-2.48-2.14-2.19-.09.03-.46.13-.69.4-10.54,9.67-24.88,32.17-36.28,55.13-16.71,33.72-27.9,54.61-32.9,56.05-1.39.4-2.45-1.2-2.72-2.12-3.94-13.6,34.35-81.84,27.76-104.6-1.07-3.7-4.78-6.13-11.45-4.21-26.46,7.66-50.6,52.06-46.93,64.73.86,2.96,2.34,3.23,3.73,2.83Z"/>
  <path class="st0" d="M405.01,136.12c-2.79-9.62-14.48-12.95-28.17-8.99-20.6,5.97-43.28,23.47-53.73,36.66,2.14-7.88,3.11-14.06,1.98-16.36-3.37-6.82-7.36-1.93-8.51,1.42-.92,2.68,1.04,6.35,1.04,6.35,2.2,7.58-10.6,37.94-20.31,56.69-9.68,18.15-16.96,32.49-28.23,51.39-.62.98-.6,2.08-.28,3.19.64,2.22,2.79,4.1,4.27,3.68.37-.11.59-.37.98-.79,10.98-19.22,20.98-37.66,30.15-55.86,4.31-8.7,9.98-22.44,14.39-35.22.57.4,1.33.63,2.29.35,2.22-.64,8.13-5.16,11.75-9.62.67-.8.79-1.43.68-1.8-.21-.74-1.02-1.11-1.1-1.38s.82-1.34,1.04-1.61c11.19-12.96,28.93-26.13,46.69-31.27,9.34-2.71,16.8-.15,18.7,6.42,5.41,18.69-27.59,45.29-47.87,58.38,6.98-12.95,14.8-26.45,24.69-43.55.62-.98.65-1.89.36-2.91-.56-1.94-2.7-3.43-3.9-3.08-.46.13-1.11,1.02-1.3,1.38-27.11,42.45-39.42,68.87-55.81,104.7-.21.66-.23,1.27.03,2.2.7,2.41,3.02,5.24,4.78,4.73.56-.16,1.08-1.12,1.49-2.13,9.79-22.29,17.29-38.3,25.85-54.42,1.15.87,3.02,1.43,3.85,1.19,5.83-1.69,62.38-41.53,54.2-69.74Z"/>
</svg>